<svg width="20" height="22" viewBox="0 0 20 22" fill="none" xmlns="http://www.w3.org/2000/svg">
<path d="M10.0002 0C6.98677 0 4.54563 2.4618 4.54563 5.5C4.54563 7.1566 5.27453 10.4731 6.42343 11.4807L2.43004 13.2979C0.910017 14.3638 -0.0022182 16.159 4.05083e-06 18.0829V21.0419C4.05083e-06 21.571 0.406677 22 0.908906 22H19.0914C19.5925 22 19.9992 21.571 19.9992 21.0419V18.0829C20.0214 16.7574 19.5881 15.4693 18.7792 14.454C18.4403 14.0382 18.048 13.673 17.6158 13.3661L13.5524 11.5016C14.7158 10.4929 15.4547 7.1687 15.4547 5.5C15.4547 2.4618 13.0124 0 10.0002 0ZM10.0002 2.2C11.7824 2.2 13.2324 3.6806 13.2324 5.5C13.2324 6.9905 12.5402 9.3731 12.088 9.8461C11.5224 10.3367 11.2457 11.077 11.3535 11.814C11.4591 12.551 11.9357 13.1835 12.618 13.4981L16.4691 15.2647C16.6825 15.4319 16.8747 15.6211 17.0347 15.8158C17.5269 16.434 17.7914 17.2271 17.7769 18.0829V19.8H2.22226V18.0807C2.22115 16.9301 2.72116 15.8664 3.57006 15.1998L7.35122 13.4794C8.03345 13.1692 8.52124 12.5466 8.63124 11.8107C8.74124 11.0748 8.47679 10.3422 7.91456 9.8494C7.45122 9.3599 6.76788 6.9839 6.76788 5.5C6.76788 3.6806 8.2179 2.2 10.0002 2.2Z" fill="#191919"/>
</svg>
