<svg width="22" height="22" viewBox="0 0 22 22" fill="none" xmlns="http://www.w3.org/2000/svg">
<path d="M16 4.96975H21C21.552 4.96975 22 5.41775 22 5.96975V9.96975C22 10.5218 21.552 10.9698 21 10.9698H20V20.9697C20 21.5217 19.552 21.9697 19 21.9697H3C2.4477 21.9697 2 21.5217 2 20.9697V10.9698H1C0.4477 10.9698 0 10.5218 0 9.96975V5.96975C0 5.41775 0.4477 4.96975 1 4.96975H6C4.936 3.78675 4.979 1.97975 6.1 0.84975C7.286 -0.28325 9.154 -0.28325 10.34 0.84975C10.618 1.13375 10.857 1.45275 11.05 1.79975C11.243 1.45275 11.482 1.13375 11.76 0.84975C12.946 -0.28325 14.814 -0.28325 16 0.84975C17.092 2.00575 17.092 3.81375 16 4.96975ZM14.478 2.31175C14.108 1.94275 13.517 1.91975 13.12 2.25975C12.511 3.04675 12.124 3.98275 12 4.96975C12.938 4.75275 13.807 4.30575 14.53 3.66975C14.87 3.27275 14.847 2.68175 14.478 2.31175ZM7.46 2.25975H7.47C7.279 2.44575 7.171 2.70075 7.169 2.96775C7.167 3.23475 7.272 3.49075 7.46 3.67975C8.186 4.31475 9.059 4.75775 10 4.96975C9.875 3.98075 9.485 3.04475 8.87 2.25975C8.48 1.87175 7.85 1.87175 7.46 2.25975ZM12 19.9698H18V10.9698H12V19.9698ZM10 19.9698V10.9698H4V19.9698H10ZM2 8.96975H20V6.96975H2V8.96975Z" fill="#191919"/>
</svg>
