<svg width="22" height="17" viewBox="0 0 22 17" fill="none" xmlns="http://www.w3.org/2000/svg">
<path d="M20 12H14V5H17.5L20 8.333V12ZM21.8 7.4L18.8 3.4C18.611 3.148 18.314 3 18 3H14V1C14 0.448 13.553 0 13 0H1C0.448 0 0 0.447 0 1C0 1.553 0.448 2 1 2H12V12H1C0.447 12 0 12.448 0 13C0 13.552 0.447 14 1 14H2H21C21.553 14 22 13.552 22 13V8C22 7.784 21.93 7.573 21.8 7.4ZM6 14C6 14.552 5.552 15 5 15C4.448 15 4 14.552 4 14H2C2 15.654 3.346 17 5 17C6.654 17 8 15.654 8 14H6ZM17 14C17 14.552 16.552 15 16 15C15.448 15 15 14.552 15 14H13C13 15.654 14.346 17 16 17C17.654 17 19 15.654 19 14H17ZM1 6C0.448 6 0 5.553 0 5C0 4.447 0.448 4 1 4H9C9.552 4 10 4.447 10 5C10 5.553 9.552 6 9 6H1ZM1 10C0.448 10 0 9.553 0 9C0 8.447 0.448 8 1 8H7C7.552 8 8 8.447 8 9C8 9.553 7.552 10 7 10H1Z" fill="#191919"/>
</svg>
