<svg width="24" height="17" viewBox="0 0 24 17" fill="none" xmlns="http://www.w3.org/2000/svg">
<path fill-rule="evenodd" clip-rule="evenodd" d="M2.86683 3.50379C2.9409 3.5042 3.01531 3.50658 3.08962 3.51129C3.4716 3.53547 3.96247 3.62732 4.38189 3.93503C5.23174 4.51649 5.67899 5.30691 5.85235 6.3763C6.01299 7.36728 5.94755 8.65392 5.79868 10.3124L5.79714 10.3282C5.55147 12.6504 7.27083 14.8986 9.80619 14.8986C11.1726 14.8986 12.3205 14.4225 13.143 13.9271C13.5521 13.6807 13.8716 13.435 14.0856 13.2539C14.1922 13.1637 14.2717 13.0903 14.322 13.0422C14.3471 13.0182 14.3649 13.0005 14.375 12.9903L14.3844 12.9807L14.3831 12.9821C14.594 12.7586 14.8956 12.6449 15.2016 12.6731C15.5079 12.7013 15.7842 12.8689 15.9507 13.1275L17.1564 15H21.9613C21.9592 14.9965 21.957 14.993 21.9549 14.9894C21.8513 14.8145 21.7256 14.5751 21.6004 14.3367C21.5316 14.2056 21.4629 14.0748 21.3981 13.955C21.1943 13.5788 20.97 13.1952 20.7107 12.8451C20.6098 12.7088 20.3474 12.511 19.7429 12.3579C19.1559 12.2093 18.3727 12.1351 17.4115 12.1351C16.439 12.1351 15.529 11.9349 14.828 11.4798C14.0941 11.0032 13.6096 10.2497 13.6096 9.31081C13.6096 8.78515 13.7422 8.30463 14.0298 7.9057C14.3134 7.51231 14.6901 7.27808 15.0436 7.13883C15.6744 6.89038 16.3885 6.89134 16.7643 6.89185C16.7806 6.89187 16.7962 6.89189 16.8111 6.89189C16.9209 6.89189 17.0242 6.89363 17.1153 6.89521L17.123 6.89534C17.2136 6.89691 17.2895 6.89823 17.3615 6.89823C17.5105 6.89823 17.6019 6.89206 17.6704 6.8805C17.7546 6.86629 17.8415 6.84392 18.0008 6.68254C18.3145 6.36481 18.6963 6.02814 19.0584 5.70891C19.077 5.69246 19.0956 5.67606 19.1141 5.6597C19.5056 5.31439 19.8802 4.98183 20.2024 4.65551L20.2197 4.63837C21.0991 3.79013 21.4409 2.8972 21.571 2.22802C21.5864 2.14885 21.5988 2.07268 21.6088 2H15.1099C14.3118 2 13.8472 2.15861 13.5755 2.3275C13.3167 2.48843 13.159 2.70411 13.0548 2.97752C12.9437 3.26938 12.8967 3.6223 12.887 4.01753C12.8823 4.21163 12.8866 4.40336 12.8929 4.5949C12.8941 4.63248 12.8955 4.67133 12.8968 4.71087C12.9021 4.8596 12.9077 5.01813 12.9077 5.15541C12.9077 6.87432 11.7077 8.08108 10.2065 8.08108C9.67675 8.08108 9.03377 7.92823 8.51432 7.44788C7.97672 6.95074 7.70542 6.22747 7.70542 5.35811C7.70542 4.82929 7.5562 3.9196 7.13543 3.1789C6.74 2.4828 6.15691 2 5.20297 2C4.29586 2 3.50782 2.62624 2.86683 3.50379ZM23.6044 0.853578L23.6007 0.830763C23.5183 0.350803 23.1021 0 22.6152 0H15.1099C14.0567 0 13.1954 0.20879 12.5195 0.629004C11.8308 1.05718 11.4194 1.65231 11.1858 2.26572C10.9592 2.86069 10.8998 3.4706 10.8876 3.96853C10.8814 4.22101 10.8873 4.45844 10.8939 4.66043C10.8956 4.71235 10.8973 4.76049 10.8989 4.80549C10.9038 4.94651 10.9077 5.05665 10.9077 5.15541C10.9077 5.53788 10.7859 5.76331 10.6696 5.88581C10.5503 6.01142 10.3894 6.08108 10.2065 6.08108C10.0357 6.08108 9.92815 6.03123 9.8722 5.97949C9.8344 5.94453 9.70542 5.80631 9.70542 5.35811C9.70542 4.56936 9.5044 3.3 8.87443 2.19103C8.21913 1.03747 7.05099 0 5.20297 0C3.31162 0 2.00078 1.29458 1.24212 2.33737C0.847463 2.87984 0.555627 3.41594 0.362957 3.81318C0.265977 4.01313 0.192491 4.18129 0.142315 4.30199C0.117192 4.36242 0.0978143 4.41118 0.0841654 4.44636L0.067956 4.48877L0.0630506 4.50193L0.0613959 4.50643L0.0607678 4.50814L0.067956 4.48877L0.0602725 4.5095C-0.0720499 4.87326 0.0174412 5.28072 0.29002 5.55555C0.562514 5.83029 0.969049 5.92315 1.3338 5.79401L1.34445 5.79036C1.35495 5.78679 1.37219 5.78101 1.39541 5.7735C1.44196 5.75844 1.5119 5.73661 1.59921 5.71174C1.77583 5.66143 2.01368 5.60149 2.26724 5.55869C2.52638 5.51494 2.76842 5.49496 2.96327 5.50729C3.14072 5.51852 3.20297 5.5508 3.20297 5.5508C3.2159 5.56047 3.22902 5.56973 3.2424 5.57877C3.58019 5.80685 3.77765 6.07658 3.87812 6.69633C3.9925 7.40194 3.95814 8.44432 3.80737 10.126C3.45757 13.4768 5.94024 16.8986 9.80619 16.8986C11.642 16.8986 13.146 16.26 14.1748 15.6404C14.442 15.4795 14.6796 15.3184 14.8856 15.1676L15.7702 16.5414C15.9543 16.8273 16.271 17 16.611 17H22.3149C22.7715 17 23.1844 16.8307 23.4897 16.5169C23.7732 16.2256 23.9045 15.8727 23.9604 15.5784C24.0171 15.2797 24.0094 14.9771 23.9599 14.7074C23.9154 14.4658 23.8252 14.1862 23.6572 13.9386C23.5818 13.8089 23.5059 13.6637 23.4123 13.4847C23.3402 13.3469 23.2576 13.189 23.1568 13.0027C22.9352 12.5935 22.6592 12.1156 22.318 11.6549C21.8185 10.9804 21.0302 10.6208 20.2338 10.4191C19.4198 10.213 18.4517 10.1351 17.4115 10.1351C16.6828 10.1351 16.1919 9.98068 15.9171 9.80231C15.6754 9.6454 15.6096 9.48674 15.6096 9.31081C15.6096 9.12856 15.6521 9.07531 15.6521 9.07531C15.6562 9.06963 15.6798 9.03779 15.7766 8.99969C16.0192 8.90413 16.3713 8.89189 16.8111 8.89189C16.8719 8.89189 16.9418 8.89322 17.0181 8.89468C17.3039 8.90012 17.6794 8.90728 18.0033 8.8526C18.5195 8.76546 18.9829 8.53446 19.424 8.08773C19.6878 7.82054 20.0228 7.52508 20.4076 7.18563L20.4372 7.15955C20.8184 6.82327 21.2409 6.44946 21.6171 6.06926C22.8328 4.89282 23.3396 3.6105 23.5342 2.60982C23.6311 2.11194 23.6505 1.68582 23.6447 1.37716C23.6418 1.22249 23.6325 1.09614 23.6232 1.00359C23.6185 0.95727 23.6138 0.919278 23.6098 0.890287C23.6078 0.875786 23.606 0.863522 23.6044 0.853578L23.6023 0.840406L23.6015 0.835139L23.6009 0.831773C23.6009 0.831773 23.6029 0.843634 23.6044 0.853578Z" fill="#111820"/>
</svg>
