<svg width="18" height="24" viewBox="0 0 18 24" fill="none" xmlns="http://www.w3.org/2000/svg">
<path d="M8.9988 24C8.44664 24 7.99851 23.5529 7.99851 22.9997V14.9974H0.996465C0.635359 14.9964 0.303262 14.8003 0.127211 14.4852C-0.0488402 14.1711 -0.0418381 13.785 0.146217 13.4769L8.14855 0.473441C8.38362 0.0946307 8.84075 -0.0832211 9.26888 0.037414C9.698 0.158049 9.99609 0.547963 9.99909 0.993593V8.99563H17.0011C17.3622 8.99763 17.6933 9.19268 17.8694 9.50777C18.0464 9.82287 18.0384 10.208 17.8514 10.5161L9.84904 23.5199C9.66799 23.8169 9.3459 23.999 8.9988 24ZM7.99851 4.52432L2.78699 12.9968H8.9988C9.55096 12.9968 9.99909 13.4449 9.99909 13.9971V19.4687L15.2106 10.9962H8.9988C8.44664 10.9962 7.99851 10.5491 7.99851 9.99592V4.52432Z" fill="#363636"/>
</svg>
