<svg width="19" height="20" viewBox="0 0 19 20" fill="none" xmlns="http://www.w3.org/2000/svg">
<path d="M6.70711 1.70711C7.09763 1.31658 7.09763 0.683417 6.70711 0.292893C6.31658 -0.0976311 5.68342 -0.0976311 5.29289 0.292893L0.292893 5.29289C0.146447 5.43934 0.0549175 5.61991 0.0183058 5.80901C-0.0427136 6.12417 0.0488155 6.46303 0.292893 6.70711L5.29289 11.7071C5.68342 12.0976 6.31658 12.0976 6.70711 11.7071C7.09763 11.3166 7.09763 10.6834 6.70711 10.2929L3.41421 7H11C14.3848 7 17 9.53093 17 12.5C17 15.4691 14.3848 18 11 18H2C1.44772 18 1 18.4477 1 19C1 19.5523 1.44772 20 2 20H11C15.3472 20 19 16.7106 19 12.5C19 8.28937 15.3472 5 11 5H3.41421L6.70711 1.70711Z" fill="#191919"/>
</svg>
