<svg width="18" height="17" viewBox="0 0 18 17" fill="none" xmlns="http://www.w3.org/2000/svg">
<path d="M18 4.25005C17.9959 4.09365 17.9558 3.9041 17.8691 3.77405L15.4145 0.374059C15.2607 0.13691 15.0022 -0.00333956 14.7273 6.04325e-05H3.27273C3.015 6.04325e-05 2.77282 0.12586 2.61818 0.340059L0.163636 3.74005C0.0736364 3.8752 0.0130909 4.0894 0 4.25005V16.15C0 16.6192 0.366545 17 0.818182 17H17.1818C17.6335 17 18 16.6192 18 16.15V4.25005ZM15.5455 3.40005H9.81818V1.70005H14.3182L15.5455 3.40005ZM8.18182 1.70005V3.40005H2.45455L3.68182 1.70005H8.18182ZM1.63636 5.10004H8.18182V15.3H1.63636V5.10004ZM16.3636 5.10004V15.3H9.81818V5.10004H16.3636Z" fill="#191919"/>
</svg>
