<svg xmlns="http://www.w3.org/2000/svg" width="72" height="789" fill="none" xmlns:v="https://vecta.io/nano"><style><![CDATA[.B{fill:#414141}.C{fill-rule:evenodd}.D{fill:#fff}]]></style><g class="B"><path d="M40.707 776.707a1 1 0 0 0-1.414-1.414L36 778.586l-1.293-1.293a1 1 0 0 0-1.414 1.414l2 2a1 1 0 0 0 1.414 0l4-4z"/><path d="M37.6 767.2a1 1 0 0 0-1.2 0c-2.955 2.216-5.908 2.68-6.991 2.776-.755.067-1.409.695-1.409 1.524v5.5c0 2.574.504 4.776 1.828 6.734 1.312 1.939 3.362 3.538 6.265 5.043a1.97 1.97 0 0 0 1.814 0c2.903-1.505 4.953-3.104 6.265-5.043C45.496 781.776 46 779.574 46 777v-5.5c0-.829-.654-1.457-1.409-1.524-1.083-.096-4.036-.56-6.991-2.776zM30 777v-5.076c1.411-.176 4.162-.757 7-2.694 2.838 1.937 5.589 2.518 7 2.694V777c0 2.3-.446 4.077-1.485 5.613-1.05 1.552-2.773 2.959-5.515 4.382-2.742-1.423-4.465-2.83-5.515-4.382C30.446 781.077 30 779.3 30 777z" class="C"/><path d="M28 711a3 3 0 0 0-3 3v12a3 3 0 0 0 3 3h7a1 1 0 1 0 0-2h-7a1 1 0 0 1-1-1v-12a1 1 0 0 1 1-1h16a1 1 0 0 1 1 1v3a1 1 0 1 0 2 0v-3a3 3 0 0 0-3-3H28z"/><path d="M45 732c0 .721-.79 1.223-1.447.895L42 732.118l-1.553.777c-.661.331-1.44-.175-1.447-.895v-4c-1.214-.912-2-2.364-2-4a5 5 0 1 1 10 0c0 1.636-.786 3.088-2 4v4zm0-8a3 3 0 1 1-6 0 3 3 0 1 1 6 0zm-2 4.9c-.323.066-.658.1-1 .1s-.677-.034-1-.1v1.482c.225-.112.45-.255.691-.333.205-.067.422-.064.618 0 .241.078.466.221.691.333V728.9z" class="C"/><path d="M29 716a1 1 0 0 1 1-1h9a1 1 0 1 1 0 2h-9a1 1 0 0 1-1-1zm1 3a1 1 0 1 0 0 2h5a1 1 0 1 0 0-2h-5z"/><path d="M31.763 659c2.058-1.037 5.237-2.816 5.237-7a1 1 0 0 1 .7-.954c.095-.03.196-.046.3-.046h.117c.908-.001 2.181-.003 3.188.668 1.162.775 1.695 2.2 1.695 4.332 0 .623-.148 1.466-.342 2.243l-.21.757H45c.61 0 1.167.106 1.642.37.492.273.817.673 1.018 1.116.192.423.269.876.305 1.283a14.13 14.13 0 0 1 .035 1.209V663c0 1.146-.407 3.523-1.261 5.627-.43 1.057-1 2.116-1.745 2.925C44.241 672.37 43.243 673 42 673h-4.992H37c-.709 0-1.487-.254-2.175-.549-.714-.306-1.444-.706-2.089-1.093l-1.648-1.067-.413-.291H27a1 1 0 0 1-1-1v-9a1 1 0 0 1 1-1h4.763zm7.185-5.98c.553.031.947.112 1.247.312.338.225.805.8.805 2.668 0 .378-.102 1.034-.283 1.758-.177.707-.402 1.371-.604 1.78a1.07 1.07 0 0 0-.086.229c-.028.119-.034.239-.019.357.035.292.197.545.429.703.103.07.22.122.346.15a1 1 0 0 0 .236.023H45c.39 0 .583.069.671.118.07.039.12.09.169.196.058.127.106.325.133.63S46 662.59 46 663c0 .855-.343 2.977-1.114 4.874-.383.942-.844 1.759-1.364 2.324-.513.557-1.015.802-1.522.802h-5-.007c-.292-.001-.762-.122-1.381-.388-.599-.256-1.244-.607-1.848-.969l-1.539-.996-.225-.158V661a.92.92 0 0 0 .227-.026c.084-.019.164-.049.239-.089l.035-.017c1.861-.93 5.942-2.97 6.447-7.848zM30 661v7h-2v-7h2z" class="C"/><path d="M40 606.001a2 2 0 1 1-4 0 2 2 0 1 1 4 0z"/><path d="M30 604.921a3 3 0 0 1 1.048-2.278l4.252-3.644a4.15 4.15 0 0 1 5.402 0l4.252 3.644A3 3 0 0 1 46 604.921v12.08a3 3 0 0 1-3 3H33a3 3 0 0 1-3-3v-12.08zm6.601-4.403a2.15 2.15 0 0 1 2.798 0l4.252 3.644a1 1 0 0 1 .349.759v12.08a1 1 0 0 1-1 1H33a1 1 0 0 1-1-1v-12.08a1 1 0 0 1 .349-.759l4.252-3.644z" class="C"/></g><g clip-path="url(#M)"><mask id="A" maskUnits="userSpaceOnUse" x="24" y="23" width="24" height="23"><path d="M47.749 23.944H24.25v22.033h23.499V23.944z" class="D"/></mask><g mask="url(#A)" class="B C"><path d="M27.377 24.73a1.75 1.75 0 0 1 1.461-.786h14.324a1.75 1.75 0 0 1 1.461.786l2.997 4.541c.082.12.13.266.13.423v3.333a.75.75 0 0 1-.078.333 3.73 3.73 0 0 1-.656.936v9.931a1.75 1.75 0 0 1-1.75 1.75H26.733a1.75 1.75 0 0 1-1.75-1.75v-9.931a3.73 3.73 0 0 1-.655-.936.75.75 0 0 1-.078-.333v-3.333c0-.156.048-.301.129-.421l2.998-4.543zm15.993.826l2.236 3.388H26.393l2.236-3.388a.25.25 0 0 1 .209-.112h14.324a.25.25 0 0 1 .209.112zm2.146 9.682c-1.366.458-2.968.15-4.017-.926-1.471 1.508-4.029 1.508-5.5 0-1.471 1.508-4.029 1.508-5.5 0-1.049 1.075-2.651 1.384-4.017.926v8.989a.25.25 0 0 0 .25.25h18.533a.25.25 0 0 0 .25-.25v-8.989zm-19.767-2.4v-2.395l20.5.001v2.394c-.894 1.52-3.278 1.472-4.078-.144a.75.75 0 0 0-1.344 0c-.825 1.666-3.331 1.666-4.156 0a.75.75 0 0 0-1.344 0c-.825 1.666-3.331 1.666-4.155 0a.75.75 0 0 0-1.344 0c-.8 1.616-3.184 1.664-4.078.144zm14.178 5.393a.75.75 0 0 0-1.045-1.076l-4.053 3.938-1.966-1.966a.75.75 0 1 0-1.061 1.061l2.489 2.489a.75.75 0 0 0 1.053.008l4.583-4.453z"/></g><mask id="B" maskUnits="userSpaceOnUse" x="24" y="69" width="24" height="25"><path d="M48 69.355H24v24h24v-24z" class="D"/></mask><g mask="url(#B)" class="B C"><path d="M25.501 81.354a10.5 10.5 0 0 1 10.5-10.5c5.799 0 10.5 4.701 10.5 10.5a10.45 10.45 0 0 1-1.969 6.123c-.392-1.242-1.284-2.312-2.447-3.118-1.588-1.099-3.741-1.756-6.084-1.756s-4.496.656-6.084 1.756c-1.163.805-2.055 1.876-2.447 3.118a10.45 10.45 0 0 1-1.969-6.123zm3.25 7.596c.287.274.59.532.907.773 1.762 1.338 3.958 2.132 6.343 2.132a10.45 10.45 0 0 0 6.562-2.302 10.58 10.58 0 0 0 .688-.602v-.057c0-1.214-.71-2.392-2.02-3.3s-3.154-1.489-5.23-1.489-3.922.584-5.23 1.489-2.02 2.086-2.02 3.3l.001.057zM48 81.354c0 3.79-1.757 7.169-4.5 9.368a11.95 11.95 0 0 1-7.5 2.632c-2.724 0-5.236-.908-7.25-2.437A11.98 11.98 0 0 1 24 81.354c0-6.627 5.372-12 12-12s12 5.373 12 12zm-12-1.5a2.9 2.9 0 1 0 0-5.8 2.9 2.9 0 0 0 0 5.8zm0 1.5a4.4 4.4 0 0 0 0-8.8 4.4 4.4 0 0 0 0 8.8zm2.798 6.061a.75.75 0 0 0-.995-1.122l-2.517 2.232-.955-.955a.75.75 0 0 0-1.061 1.061l1.455 1.455a.75.75 0 0 0 1.028.031l3.045-2.701z"/></g><mask id="C" maskUnits="userSpaceOnUse" x="24" y="118" width="24" height="19"><path d="M47.752 118.054h-23.5v18.433h23.5v-18.433z" class="D"/></mask><g mask="url(#C)" class="B C"><path d="M25.003 118.054a.75.75 0 1 0 0 1.5H38.67a.25.25 0 0 1 .25.25v11.45H25.003a.75.75 0 1 0 0 1.5h1.25a3.75 3.75 0 0 0 7.5 0h3.5a3.75 3.75 0 0 0 7.5 0h2.25a.75.75 0 0 0 .75-.75v-4.854a.75.75 0 0 0-.151-.452l-3.531-4.679a.75.75 0 0 0-.599-.298h-3.052v-1.917a1.75 1.75 0 0 0-1.75-1.75H25.003zm16 16.933a2.25 2.25 0 0 1-2.25-2.233h4.5a2.25 2.25 0 0 1-2.25 2.233zm-13.25-2.233a2.25 2.25 0 0 0 4.5 0h-4.5zm18.5-1.5h-5.833v-8.034h2.679l3.154 4.181v3.853zm-22-8.45a.75.75 0 0 1 .75-.75h7.333a.75.75 0 1 1 0 1.5h-7.333a.75.75 0 0 1-.75-.75zm.75 4.25a.75.75 0 1 0 0 1.5h5.867a.75.75 0 1 0 0-1.5h-5.867z"/></g><mask id="D" maskUnits="userSpaceOnUse" x="24" y="159" width="24" height="24"><path d="M47.75 159.75h-23.5v22.5h23.5v-22.5z" class="D"/></mask><g mask="url(#D)" class="B"><path d="M25.75 165.5v15a.25.25 0 0 0 .25.25h20a.25.25 0 0 0 .25-.25v-15h1.5v15a1.75 1.75 0 0 1-1.75 1.75H26a1.75 1.75 0 0 1-1.75-1.75v-15h1.5z" class="C"/><path d="M28.3 159.75a.75.75 0 0 0-.626.337l-3.3 5A.75.75 0 0 0 25 166.25h22a.75.75 0 0 0 .626-1.163l-3.3-5a.75.75 0 0 0-.626-.337H28.3zm-1.906 5l2.31-3.5h6.546v3.5h-8.856zm10.356 0h8.856l-2.31-3.5h-6.546v3.5z" class="C"/><path d="M31.067 171.285a.75.75 0 0 0 0 1.055l2.111 2.134a.75.75 0 0 0 1.061.006.75.75 0 0 0 .006-1.06l-.937-.948h4.817c.842 0 1.525.683 1.525 1.525s-.683 1.525-1.525 1.525H36a.75.75 0 1 0 0 1.5h2.125c1.671 0 3.025-1.354 3.025-3.025s-1.354-3.025-3.025-3.025h-4.639l.759-.767a.75.75 0 1 0-1.066-1.055l-2.111 2.135z"/></g><mask id="E" maskUnits="userSpaceOnUse" x="26" y="205" width="20" height="25"><path d="M45.75 205.716h-19.5v23.75h19.5v-23.75z" class="D"/></mask><g mask="url(#E)" class="B C"><path d="M28 211.466a.25.25 0 0 0-.25.25v16a.25.25 0 0 0 .25.25h16a.25.25 0 0 0 .25-.25v-16a.25.25 0 0 0-.25-.25h-3.154v-1.5H44a1.75 1.75 0 0 1 1.75 1.75v16a1.75 1.75 0 0 1-1.75 1.75H28a1.75 1.75 0 0 1-1.75-1.75v-16a1.75 1.75 0 0 1 1.75-1.75h3.154v1.5H28z"/><path d="M37.929 209.55v-1.5s0-.173-.348-.41c-.34-.232-.895-.424-1.58-.424s-1.24.192-1.58.424c-.348.237-.348.41-.348.41v1.5H31.5v1.666h9v-1.666h-2.571zm1.5-1.5c0-1.289-1.535-2.334-3.428-2.334s-3.429 1.045-3.429 2.334H31a1 1 0 0 0-1 1v3.666h12v-3.666a1 1 0 0 0-1-1h-1.571zm1.017 8.381a.75.75 0 0 1 .009 1.061l-5.412 5.509c-.14.142-.332.223-.532.224a.75.75 0 0 1-.534-.22l-3.008-3.008a.75.75 0 0 1 1.061-1.06l2.473 2.473 4.882-4.969a.75.75 0 0 1 1.061-.01z"/></g><mask id="F" maskUnits="userSpaceOnUse" x="25" y="254" width="22" height="25"><path d="M46.5 254.034h-21v24h21v-24z" class="D"/></mask><g mask="url(#F)" class="B C"><path d="M25.5 259.838l.063 7.675c-.023 2.496.462 4.141 1.845 5.873 1.81 2.3 4.719 3.94 8.592 4.647 3.873-.707 6.782-2.347 8.591-4.647 1.384-1.732 1.869-3.377 1.846-5.873l.063-7.675c.006-.841-.498-1.607-1.288-1.96l-8.084-3.605c-.716-.319-1.54-.319-2.255 0l-8.085 3.605c-.791.353-1.295 1.119-1.287 1.96zm1.899-.59c-.268.12-.401.357-.399.577l.063 7.676v.026c-.02 2.222.39 3.511 1.517 4.924l.006.008c1.493 1.897 3.949 3.365 7.413 4.048 3.465-.683 5.92-2.151 7.412-4.048l.007-.009c1.128-1.412 1.538-2.701 1.518-4.923v-.026l.063-7.674c.001-.221-.132-.459-.399-.579l-8.083-3.605a1.28 1.28 0 0 0-1.034 0l-8.085 3.605zm6.491 3.036a.75.75 0 0 1 .75-.75H36a.75.75 0 0 1 .75.75v7.5a.75.75 0 1 1-1.5 0v-6.75h-.61a.75.75 0 0 1-.75-.75z"/></g><mask id="G" maskUnits="userSpaceOnUse" x="26" y="349" width="20" height="24"><path d="M46 349H26v24h20v-24z" class="D"/></mask><g mask="url(#G)" class="B C"><path d="M36.544 349.234a.75.75 0 0 0-1.088 0l-4.5 4.744-.013.015c-3.118 3.465-4.942 5.673-4.942 9.004 0 2.742 1.3 5.241 3.167 7.042S33.522 373 36 373s4.97-1.164 6.833-2.961 3.167-4.3 3.167-7.042c0-3.331-1.824-5.539-4.943-9.004l-.013-.015-4.5-4.744zM27.5 362.997c0-2.668 1.374-4.461 4.551-7.993L36 350.84l3.949 4.164c3.177 3.532 4.551 5.325 4.551 7.993 0 2.26-1.075 4.387-2.708 5.962-1.435 1.384-3.253 2.295-5.042 2.498v-4.041l4.895-3.031a.75.75 0 0 0 .243-1.032.75.75 0 0 0-1.032-.243l-4.105 2.542v-3.262l2.927-2.027a.75.75 0 1 0-.854-1.234l-2.073 1.436v-4.82a.75.75 0 1 0-1.5 0v4.82l-2.073-1.436a.75.75 0 1 0-.854 1.234l2.927 2.027v3.262l-4.105-2.542a.75.75 0 0 0-1.032.243.75.75 0 0 0 .243 1.032l4.895 3.031v4.041c-1.789-.203-3.607-1.114-5.042-2.498-1.633-1.575-2.708-3.702-2.708-5.962z"/></g><mask id="H" maskUnits="userSpaceOnUse" x="24" y="397" width="24" height="24"><path d="M48 397H24v24h24v-24z" class="D"/></mask><g mask="url(#H)" class="B C"><path d="M36 397a.75.75 0 0 1 .74.627c.947 5.684 4.95 9.686 10.633 10.633a.75.75 0 0 1 0 1.48c-5.684.947-9.686 4.949-10.633 10.633a.75.75 0 0 1-1.48 0c-.947-5.684-4.95-9.686-10.633-10.633a.75.75 0 0 1 0-1.48c5.684-.947 9.686-4.949 10.633-10.633A.75.75 0 0 1 36 397zm-8.305 12A13.73 13.73 0 0 1 36 417.305 13.73 13.73 0 0 1 44.305 409 13.73 13.73 0 0 1 36 400.695 13.73 13.73 0 0 1 27.695 409z"/></g><mask id="I" maskUnits="userSpaceOnUse" x="24" y="445" width="24" height="24"><path d="M48 445H24v24h24v-24z" class="D"/></mask><g mask="url(#I)" class="B"><path d="M42.53 453.53a.75.75 0 0 0 0-1.06.75.75 0 0 0-1.061 0L34 459.939l-3.47-3.469a.75.75 0 0 0-1.061 0 .75.75 0 0 0 0 1.06l4 4a.75.75 0 0 0 1.061 0l8-8z"/><path d="M48 457c0 6.627-5.373 12-12 12s-12-5.373-12-12 5.373-12 12-12 12 5.373 12 12zm-1.5 0c0 5.799-4.701 10.5-10.5 10.5s-10.5-4.701-10.5-10.5 4.701-10.5 10.5-10.5 10.5 4.701 10.5 10.5z" class="C"/></g><mask id="J" maskUnits="userSpaceOnUse" x="24" y="538" width="24" height="23"><path d="M48 538H24v23h24v-23z" class="D"/></mask><g mask="url(#J)" class="B C"><path d="M34.854 538.842c.351-1.123 1.941-1.123 2.292 0l2.24 7.178h7.412c1.168 0 1.648 1.498.697 2.176l-6.013 4.283 2.455 6.915c.391 1.102-.867 2.055-1.823 1.381L36 556.468l-6.113 4.307c-.957.674-2.215-.279-1.823-1.381l2.455-6.915-6.013-4.283c-.951-.678-.472-2.176.697-2.176h7.411l2.24-7.178zM36 540.207l-2.282 7.312h-7.577l6.17 4.395-2.518 7.092L36 554.633l6.207 4.373-2.518-7.092 6.17-4.395h-7.578L36 540.207z"/></g><mask id="K" maskUnits="userSpaceOnUse" x="25" y="301" width="22" height="25"><path d="M46.5 301.637h-21v24h21v-24z" class="D"/></mask><g mask="url(#K)" class="B"><path d="M34 311.25c0-.629.59-1.75 2.133-1.75 1.538 0 2.117 1.115 2.117 1.75 0 .678-.26 1.075-.68 1.395-.477.362-1.139.608-1.949.899l-.055.02c-.741.267-1.614.581-2.293 1.097-.751.571-1.273 1.392-1.273 2.589a.75.75 0 0 0 .75.75h6.5a.75.75 0 1 0 0-1.5h-5.607c.117-.263.302-.466.538-.645.477-.362 1.139-.608 1.949-.899l.055-.02c.741-.267 1.614-.581 2.293-1.097.751-.571 1.273-1.392 1.273-2.589 0-1.365-1.154-3.25-3.617-3.25-2.456 0-3.633 1.879-3.633 3.25a.75.75 0 1 0 1.5 0z"/><path d="M25.5 307.441l.063 7.675c-.023 2.496.462 4.141 1.845 5.873 1.81 2.3 4.719 3.94 8.592 4.647 3.873-.707 6.782-2.347 8.591-4.647 1.384-1.732 1.869-3.377 1.846-5.873l.063-7.675c.006-.841-.498-1.607-1.288-1.96l-8.084-3.605c-.716-.319-1.54-.319-2.255 0l-8.085 3.605c-.791.353-1.295 1.119-1.287 1.96zm1.898-.59c-.268.12-.4.357-.398.577l.063 7.676v.026c-.021 2.222.39 3.511 1.517 4.924l.007.008c1.493 1.897 3.949 3.365 7.413 4.048 3.464-.683 5.92-2.151 7.412-4.048l.007-.009c1.128-1.412 1.538-2.701 1.518-4.923v-.026L45 307.43c.001-.221-.132-.459-.399-.579l-8.083-3.605a1.28 1.28 0 0 0-1.034 0l-8.085 3.605z" class="C"/></g><mask id="L" maskUnits="userSpaceOnUse" x="25" y="493" width="22" height="21"><path d="M47 493H25v21h22v-21z" class="D"/></mask><g mask="url(#L)" class="B C"><path d="M28.75 493a.75.75 0 0 0-.75.75c0 1.761.149 3.458.424 5.044-.518-.028-1.077.051-1.587.264-.488.203-.956.538-1.3 1.044S25 501.246 25 502c0 .894.245 1.636.69 2.225.438.582 1.032.965 1.649 1.219 1.203.495 2.635.555 3.64.556 1.139 1.815 2.595 3.127 4.27 3.432v3.068H30a.75.75 0 1 0 0 1.5h12a.75.75 0 1 0 0-1.5h-5.25v-3.068c1.675-.305 3.132-1.617 4.271-3.432 1.005-.001 2.437-.062 3.64-.557.617-.254 1.211-.637 1.649-1.218.445-.59.69-1.331.69-2.225 0-.755-.19-1.391-.536-1.899s-.812-.84-1.3-1.044c-.51-.212-1.069-.292-1.587-.263.274-1.586.423-3.283.423-5.044a.75.75 0 0 0-.75-.75h-14.5zm14.508 7.355c-.359 1.522-.838 2.913-1.41 4.125.772-.04 1.577-.15 2.242-.424.445-.183.789-.425 1.023-.735.227-.3.388-.715.388-1.321 0-.496-.122-.828-.276-1.055s-.375-.394-.637-.503c-.469-.196-.997-.181-1.328-.087zm-15.845.087c.469-.195.997-.181 1.329-.086.359 1.521.838 2.912 1.41 4.124-.772-.04-1.578-.15-2.242-.423-.445-.184-.789-.426-1.023-.735-.227-.301-.388-.716-.388-1.322 0-.495.122-.828.276-1.054a1.41 1.41 0 0 1 .637-.504zm15.077-5.942H29.51c.095 3.747.898 7.094 2.089 9.527C32.899 506.681 34.521 508 36 508s3.102-1.319 4.401-3.973c1.191-2.433 1.994-5.78 2.089-9.527z"/></g></g><defs><clipPath id="M"><path d="M0 0h72v585H0z" class="D"/></clipPath></defs></svg>