<?xml version="1.0" encoding="UTF-8"?>
<svg width="18px" height="18px" viewBox="0 0 18 18" version="1.1" xmlns="http://www.w3.org/2000/svg" xmlns:xlink="http://www.w3.org/1999/xlink">
    <!-- Generator: Sketch 51.2 (57519) - http://www.bohemiancoding.com/sketch -->
    <title>Artboard</title>
    <desc>Created with Sketch.</desc>
    <defs></defs>
    <g id="Artboard" stroke="none" stroke-width="1" fill="none" fill-rule="evenodd">
        <g id="Group">
            <rect id="Rectangle-10" fill-rule="nonzero" x="0" y="0" width="18" height="18"></rect>
            <g id="Warning-Icon-V2" transform="translate(1.000000, 2.000000)">
                <path d="M14.6482413,14 L1.35094402,14 C0.77797105,14 0.345538617,13.788 0.131484563,13.4031111 C-0.0804073286,13.0182222 -0.0350019232,12.5293333 0.259052131,12.0262222 L6.85580889,0.776 C7.14986294,0.275555556 7.55634943,0 7.99959267,0 C8.44283591,0 8.8493224,0.275555556 9.14337646,0.776 L15.7401332,12.0262222 C16.0341873,12.5291111 16.0795927,13.0182222 15.8677008,13.4031111 C15.6536467,13.788 15.2212143,14 14.6482413,14 L14.6482413,14 Z" id="Path" stroke="#000000" stroke-width="0.5" fill="#000000"></path>
                <path d="M7.99959267,0.548666667 C7.75094402,0.548666667 7.50878186,0.729555556 7.31634943,1.05822222 L0.719592671,12.3086667 C0.531484563,12.63 0.486079158,12.9304444 0.59851159,13.1328889 C0.710944023,13.3353333 0.985538617,13.4513333 1.35094402,13.4513333 L14.6482413,13.4513333 C15.0136467,13.4513333 15.2882413,13.3353333 15.4006738,13.1328889 C15.5131062,12.9304444 15.4677008,12.63 15.2795927,12.3086667 L8.68283591,1.05822222 C8.49040348,0.729555556 8.24824132,0.548666667 7.99959267,0.548666667 L7.99959267,0.548666667 Z" id="Path" fill="#FFDB0E"></path>
                <path d="M8.41472781,8.16933333 C8.41472781,8.78044444 8.22878186,9.28044444 7.99959267,9.28044444 C7.77040348,9.28044444 7.58445754,8.78044444 7.58445754,8.16933333 L7.58445754,5.91622222 C7.58445754,5.30511111 7.77040348,4.80511111 7.99959267,4.80511111 C8.22878186,4.80511111 8.41472781,5.30511111 8.41472781,5.91622222 L8.41472781,8.16933333 Z M7.99959267,10.1862222 C8.13797105,10.1862222 8.25472781,10.236 8.3520251,10.3348889 C8.4493224,10.4342222 8.49688997,10.5544444 8.49688997,10.6957778 C8.49688997,10.8377778 8.44716024,10.958 8.34337646,11.0568889 C8.24175483,11.156 8.12716024,11.2055556 7.99959267,11.2055556 C7.8720251,11.2055556 7.75743051,11.156 7.65580889,11.0568889 C7.5520251,10.958 7.50229537,10.8377778 7.50229537,10.6957778 C7.50229537,10.5544444 7.54986294,10.4342222 7.64716024,10.3348889 C7.74445754,10.236 7.86121429,10.1862222 7.99959267,10.1862222 Z" id="Null-Warning" fill="#000000"></path>
            </g>
        </g>
    </g>
</svg>