<svg width="48" height="48" viewBox="0 0 48 48" fill="none" xmlns="http://www.w3.org/2000/svg">
<circle cx="24" cy="24" r="24" fill="#F7F7F7"/>
<path d="M19.1538 15H16C15.4477 15 15 15.4477 15 16V32C15 32.5523 15.4477 33 16 33H32C32.5523 33 33 32.5523 33 32V16C33 15.4477 32.5523 15 32 15H28.8462" stroke="#111820" stroke-width="2"/>
<mask id="path-3-inside-1_9_3015" fill="white">
<path fill-rule="evenodd" clip-rule="evenodd" d="M27.4294 11.6667C27.4294 11.6667 27.4294 11.6667 27.4294 11.6667C27.4294 10.1939 25.8944 9 24.0008 9C22.1073 9 20.5723 10.1939 20.5723 11.6667C20.5723 11.6667 20.5723 11.6667 20.5723 11.6667H19C18.4477 11.6667 18 12.1144 18 12.6667V17H30V12.6667C30 12.1144 29.5523 11.6667 29 11.6667H27.4294Z"/>
</mask>
<path d="M27.4294 11.6667H25.4294V13.6667H27.4294V11.6667ZM20.5723 11.6667V13.6667H22.5723V11.6667H20.5723ZM18 17H16V19H18V17ZM30 17V19H32V17H30ZM25.4294 11.6667C25.4294 11.6667 25.4294 11.6667 25.4294 11.6667C25.4294 11.6667 25.4294 11.6667 25.4294 11.6667V11.6667C25.4294 11.6667 25.4294 11.6667 25.4294 11.6667C25.4294 11.6667 25.4294 11.6667 25.4294 11.6667V11.6667C25.4294 11.6667 25.4294 11.6667 25.4294 11.6667C25.4294 11.6667 25.4294 11.6667 25.4294 11.6667C25.4294 11.6667 25.4294 11.6667 25.4294 11.6667C25.4294 11.6667 25.4294 11.6667 25.4294 11.6667V11.6667C25.4294 11.6667 25.4294 11.6667 25.4294 11.6667C25.4294 11.6667 25.4294 11.6667 25.4294 11.6667V11.6667C25.4294 11.6667 25.4294 11.6667 25.4294 11.6667C25.4294 11.6667 25.4294 11.6667 25.4294 11.6667C25.4294 11.6667 25.4294 11.6667 25.4294 11.6667C25.4294 11.6667 25.4294 11.6667 25.4294 11.6667V11.6667C25.4294 11.6667 25.4294 11.6667 25.4294 11.6667C25.4294 11.6667 25.4294 11.6667 25.4294 11.6667V11.6667C25.4294 11.6667 25.4294 11.6667 25.4294 11.6667C25.4294 11.6667 25.4294 11.6667 25.4294 11.6667C25.4294 11.6667 25.4294 11.6667 25.4294 11.6667C25.4294 11.6667 25.4294 11.6667 25.4294 11.6667V11.6667C25.4294 11.6667 25.4294 11.6667 25.4294 11.6667C25.4294 11.6667 25.4294 11.6667 25.4294 11.6667V11.6667C25.4294 11.6667 25.4294 11.6667 25.4294 11.6667C25.4294 11.6667 25.4294 11.6667 25.4294 11.6667C25.4294 11.6667 25.4294 11.6667 25.4294 11.6667C25.4294 11.6667 25.4294 11.6667 25.4294 11.6667V11.6667C25.4294 11.6667 25.4294 11.6667 25.4294 11.6667C25.4294 11.6667 25.4294 11.6667 25.4294 11.6667V11.6667C25.4294 11.6667 25.4294 11.6667 25.4294 11.6667C25.4294 11.6667 25.4294 11.6667 25.4294 11.6667V11.6667C25.4294 11.6667 25.4294 11.6667 25.4294 11.6667V11.6667C25.4294 11.6667 25.4294 11.6667 25.4294 11.6667C25.4294 11.6667 25.4294 11.6667 25.4294 11.6667V11.6667C25.4294 11.6667 25.4294 11.6667 25.4294 11.6667C25.4294 11.6667 25.4294 11.6667 25.4294 11.6667V11.6667C25.4294 11.6667 25.4294 11.6667 25.4294 11.6667V11.6667C25.4294 11.6667 25.4294 11.6667 25.4294 11.6667C25.4294 11.6667 25.4294 11.6667 25.4294 11.6667V11.6667C25.4294 11.6667 25.4294 11.6667 25.4294 11.6667C25.4294 11.6667 25.4294 11.6667 25.4294 11.6667V11.6667C25.4294 11.6667 25.4294 11.6667 25.4294 11.6667V11.6667C25.4294 11.6667 25.4294 11.6667 25.4294 11.6667C25.4294 11.6667 25.4294 11.6667 25.4294 11.6667V11.6667C25.4294 11.6667 25.4294 11.6667 25.4294 11.6667C25.4294 11.6667 25.4294 11.6667 25.4294 11.6667V11.6667C25.4294 11.6667 25.4294 11.6667 25.4294 11.6667V11.6667C25.4294 11.6667 25.4294 11.6667 25.4294 11.6667C25.4294 11.6667 25.4294 11.6667 25.4294 11.6667V11.6667C25.4294 11.6667 25.4294 11.6667 25.4294 11.6667C25.4294 11.6667 25.4294 11.6667 25.4294 11.6667V11.6667C25.4294 11.6667 25.4294 11.6667 25.4294 11.6667V11.6667C25.4294 11.6667 25.4294 11.6667 25.4294 11.6667C25.4294 11.6667 25.4294 11.6667 25.4294 11.6667V11.6667C25.4294 11.6667 25.4294 11.6667 25.4294 11.6667C25.4294 11.6667 25.4294 11.6667 25.4294 11.6667V11.6667C25.4294 11.6667 25.4294 11.6667 25.4294 11.6667V11.6667C25.4294 11.6667 25.4294 11.6667 25.4294 11.6667C25.4294 11.6667 25.4294 11.6667 25.4294 11.6667V11.6667C25.4294 11.6667 25.4294 11.6667 25.4294 11.6667C25.4294 11.6667 25.4294 11.6667 25.4294 11.6667V11.6667C25.4294 11.6667 25.4294 11.6667 25.4294 11.6667V11.6667C25.4294 11.6667 25.4294 11.6667 25.4294 11.6667C25.4294 11.6667 25.4294 11.6667 25.4294 11.6667V11.6667C25.4294 11.6667 25.4294 11.6667 25.4294 11.6667C25.4294 11.6667 25.4294 11.6667 25.4294 11.6667V11.6667C25.4294 11.6667 25.4294 11.6667 25.4294 11.6667V11.6667C25.4294 11.6667 25.4294 11.6667 25.4294 11.6667C25.4294 11.6667 25.4294 11.6667 25.4294 11.6667V11.6667C25.4294 11.6667 25.4294 11.6667 25.4294 11.6667C25.4294 11.6667 25.4294 11.6667 25.4294 11.6667V11.6667C25.4294 11.6667 25.4294 11.6667 25.4294 11.6667V11.6667C25.4294 11.6667 25.4294 11.6667 25.4294 11.6667C25.4294 11.6667 25.4294 11.6667 25.4294 11.6667V11.6667C25.4294 11.6667 25.4294 11.6667 25.4294 11.6667C25.4294 11.6667 25.4294 11.6667 25.4294 11.6667V11.6667C25.4294 11.6667 25.4294 11.6667 25.4294 11.6667V11.6667C25.4294 11.6667 25.4294 11.6667 25.4294 11.6667C25.4294 11.6667 25.4294 11.6667 25.4294 11.6667V11.6667C25.4294 11.6667 25.4294 11.6667 25.4294 11.6667C25.4294 11.6667 25.4294 11.6667 25.4294 11.6667V11.6667C25.4294 11.6667 25.4294 11.6667 25.4294 11.6667V11.6667C25.4294 11.6667 25.4294 11.6667 25.4294 11.6667C25.4294 11.6667 25.4294 11.6667 25.4294 11.6667V11.6667C25.4294 11.6667 25.4294 11.6667 25.4294 11.6667C25.4294 11.6667 25.4294 11.6667 25.4294 11.6667V11.6667C25.4294 11.6667 25.4294 11.6667 25.4294 11.6667V11.6667C25.4294 11.6667 25.4294 11.6667 25.4294 11.6667C25.4294 11.6667 25.4294 11.6667 25.4294 11.6667V11.6667C25.4294 11.6667 25.4294 11.6667 25.4294 11.6667C25.4294 11.6667 25.4294 11.6667 25.4294 11.6667V11.6667C25.4294 11.6667 25.4294 11.6667 25.4294 11.6667V11.6667C25.4294 11.6667 25.4294 11.6667 25.4294 11.6667C25.4294 11.6667 25.4294 11.6667 25.4294 11.6667V11.6667C25.4294 11.6667 25.4294 11.6667 25.4294 11.6667C25.4294 11.6667 25.4294 11.6667 25.4294 11.6667V11.6667C25.4294 11.6667 25.4294 11.6667 25.4294 11.6667V11.6667C25.4294 11.6667 25.4294 11.6667 25.4294 11.6667C25.4294 11.6667 25.4294 11.6667 25.4294 11.6667V11.6667C25.4294 11.6667 25.4294 11.6667 25.4294 11.6667C25.4294 11.6667 25.4294 11.6667 25.4294 11.6667V11.6667C25.4294 11.6667 25.4294 11.6667 25.4294 11.6667V11.6667C25.4294 11.6667 25.4294 11.6667 25.4294 11.6667C25.4294 11.6667 25.4294 11.6667 25.4294 11.6667V11.6667C25.4294 11.6667 25.4294 11.6667 25.4294 11.6667C25.4294 11.6667 25.4294 11.6667 25.4294 11.6667V11.6667C25.4294 11.6667 25.4294 11.6667 25.4294 11.6667V11.6667C25.4294 11.6667 25.4294 11.6667 25.4294 11.6667C25.4294 11.6667 25.4294 11.6667 25.4294 11.6667V11.6667C25.4294 11.6667 25.4294 11.6667 25.4294 11.6667C25.4294 11.6667 25.4294 11.6667 25.4294 11.6667V11.6667C25.4294 11.6667 25.4294 11.6667 25.4294 11.6667C25.4294 11.6667 25.4294 11.6667 25.4294 11.6667C25.4294 11.6667 25.4294 11.6667 25.4294 11.6667C25.4294 11.6667 25.4294 11.6667 25.4294 11.6667V11.6667C25.4294 11.6667 25.4294 11.6667 25.4294 11.6667C25.4294 11.6667 25.4294 11.6667 25.4294 11.6667V11.6667C25.4294 11.6667 25.4294 11.6667 25.4294 11.6667C25.4294 11.6667 25.4294 11.6667 25.4294 11.6667C25.4294 11.6667 25.4294 11.6667 25.4294 11.6667C25.4294 11.6667 25.4294 11.6667 25.4294 11.6667V11.6667C25.4294 11.6667 25.4294 11.6667 25.4294 11.6667C25.4294 11.6667 25.4294 11.6667 25.4294 11.6667V11.6667C25.4294 11.6667 25.4294 11.6667 25.4294 11.6667C25.4294 11.6667 25.4294 11.6667 25.4294 11.6667C25.4294 11.6667 25.4294 11.6667 25.4294 11.6667C25.4294 11.6667 25.4294 11.6667 25.4294 11.6667V11.6667C25.4294 11.6667 25.4294 11.6667 25.4294 11.6667C25.4294 11.6667 25.4294 11.6667 25.4294 11.6667V11.6667C25.4294 11.6667 25.4294 11.6667 25.4294 11.6667C25.4294 11.6667 25.4294 11.6667 25.4294 11.6667H29.4294C29.4294 11.6667 29.4294 11.6667 29.4294 11.6667C29.4294 11.6667 29.4294 11.6667 29.4294 11.6667V11.6667C29.4294 11.6667 29.4294 11.6667 29.4294 11.6667C29.4294 11.6667 29.4294 11.6667 29.4294 11.6667V11.6667C29.4294 11.6667 29.4294 11.6667 29.4294 11.6667C29.4294 11.6667 29.4294 11.6667 29.4294 11.6667C29.4294 11.6667 29.4294 11.6667 29.4294 11.6667C29.4294 11.6667 29.4294 11.6667 29.4294 11.6667V11.6667C29.4294 11.6667 29.4294 11.6667 29.4294 11.6667C29.4294 11.6667 29.4294 11.6667 29.4294 11.6667V11.6667C29.4294 11.6667 29.4294 11.6667 29.4294 11.6667C29.4294 11.6667 29.4294 11.6667 29.4294 11.6667C29.4294 11.6667 29.4294 11.6667 29.4294 11.6667C29.4294 11.6667 29.4294 11.6667 29.4294 11.6667V11.6667C29.4294 11.6667 29.4294 11.6667 29.4294 11.6667C29.4294 11.6667 29.4294 11.6667 29.4294 11.6667V11.6667C29.4294 11.6667 29.4294 11.6667 29.4294 11.6667C29.4294 11.6667 29.4294 11.6667 29.4294 11.6667C29.4294 11.6667 29.4294 11.6667 29.4294 11.6667C29.4294 11.6667 29.4294 11.6667 29.4294 11.6667V11.6667C29.4294 11.6667 29.4294 11.6667 29.4294 11.6667C29.4294 11.6667 29.4294 11.6667 29.4294 11.6667V11.6667C29.4294 11.6667 29.4294 11.6667 29.4294 11.6667C29.4294 11.6667 29.4294 11.6667 29.4294 11.6667V11.6667C29.4294 11.6667 29.4294 11.6667 29.4294 11.6667V11.6667C29.4294 11.6667 29.4294 11.6667 29.4294 11.6667C29.4294 11.6667 29.4294 11.6667 29.4294 11.6667V11.6667C29.4294 11.6667 29.4294 11.6667 29.4294 11.6667C29.4294 11.6667 29.4294 11.6667 29.4294 11.6667V11.6667C29.4294 11.6667 29.4294 11.6667 29.4294 11.6667V11.6667C29.4294 11.6667 29.4294 11.6667 29.4294 11.6667C29.4294 11.6667 29.4294 11.6667 29.4294 11.6667V11.6667C29.4294 11.6667 29.4294 11.6667 29.4294 11.6667C29.4294 11.6667 29.4294 11.6667 29.4294 11.6667V11.6667C29.4294 11.6667 29.4294 11.6667 29.4294 11.6667V11.6667C29.4294 11.6667 29.4294 11.6667 29.4294 11.6667C29.4294 11.6667 29.4294 11.6667 29.4294 11.6667V11.6667C29.4294 11.6667 29.4294 11.6667 29.4294 11.6667C29.4294 11.6667 29.4294 11.6667 29.4294 11.6667V11.6667C29.4294 11.6667 29.4294 11.6667 29.4294 11.6667V11.6667C29.4294 11.6667 29.4294 11.6667 29.4294 11.6667C29.4294 11.6667 29.4294 11.6667 29.4294 11.6667V11.6667C29.4294 11.6667 29.4294 11.6667 29.4294 11.6667C29.4294 11.6667 29.4294 11.6667 29.4294 11.6667V11.6667C29.4294 11.6667 29.4294 11.6667 29.4294 11.6667V11.6667C29.4294 11.6667 29.4294 11.6667 29.4294 11.6667C29.4294 11.6667 29.4294 11.6667 29.4294 11.6667V11.6667C29.4294 11.6667 29.4294 11.6667 29.4294 11.6667C29.4294 11.6667 29.4294 11.6667 29.4294 11.6667V11.6667C29.4294 11.6667 29.4294 11.6667 29.4294 11.6667V11.6667C29.4294 11.6667 29.4294 11.6667 29.4294 11.6667C29.4294 11.6667 29.4294 11.6667 29.4294 11.6667V11.6667C29.4294 11.6667 29.4294 11.6667 29.4294 11.6667C29.4294 11.6667 29.4294 11.6667 29.4294 11.6667V11.6667C29.4294 11.6667 29.4294 11.6667 29.4294 11.6667V11.6667C29.4294 11.6667 29.4294 11.6667 29.4294 11.6667C29.4294 11.6667 29.4294 11.6667 29.4294 11.6667V11.6667C29.4294 11.6667 29.4294 11.6667 29.4294 11.6667C29.4294 11.6667 29.4294 11.6667 29.4294 11.6667V11.6667C29.4294 11.6667 29.4294 11.6667 29.4294 11.6667V11.6667C29.4294 11.6667 29.4294 11.6667 29.4294 11.6667C29.4294 11.6667 29.4294 11.6667 29.4294 11.6667V11.6667C29.4294 11.6667 29.4294 11.6667 29.4294 11.6667C29.4294 11.6667 29.4294 11.6667 29.4294 11.6667V11.6667C29.4294 11.6667 29.4294 11.6667 29.4294 11.6667V11.6667C29.4294 11.6667 29.4294 11.6667 29.4294 11.6667C29.4294 11.6667 29.4294 11.6667 29.4294 11.6667V11.6667C29.4294 11.6667 29.4294 11.6667 29.4294 11.6667C29.4294 11.6667 29.4294 11.6667 29.4294 11.6667V11.6667C29.4294 11.6667 29.4294 11.6667 29.4294 11.6667V11.6667C29.4294 11.6667 29.4294 11.6667 29.4294 11.6667C29.4294 11.6667 29.4294 11.6667 29.4294 11.6667V11.6667C29.4294 11.6667 29.4294 11.6667 29.4294 11.6667C29.4294 11.6667 29.4294 11.6667 29.4294 11.6667V11.6667C29.4294 11.6667 29.4294 11.6667 29.4294 11.6667V11.6667C29.4294 11.6667 29.4294 11.6667 29.4294 11.6667C29.4294 11.6667 29.4294 11.6667 29.4294 11.6667V11.6667C29.4294 11.6667 29.4294 11.6667 29.4294 11.6667C29.4294 11.6667 29.4294 11.6667 29.4294 11.6667V11.6667C29.4294 11.6667 29.4294 11.6667 29.4294 11.6667V11.6667C29.4294 11.6667 29.4294 11.6667 29.4294 11.6667C29.4294 11.6667 29.4294 11.6667 29.4294 11.6667V11.6667C29.4294 11.6667 29.4294 11.6667 29.4294 11.6667C29.4294 11.6667 29.4294 11.6667 29.4294 11.6667V11.6667C29.4294 11.6667 29.4294 11.6667 29.4294 11.6667V11.6667C29.4294 11.6667 29.4294 11.6667 29.4294 11.6667C29.4294 11.6667 29.4294 11.6667 29.4294 11.6667V11.6667C29.4294 11.6667 29.4294 11.6667 29.4294 11.6667C29.4294 11.6667 29.4294 11.6667 29.4294 11.6667V11.6667C29.4294 11.6667 29.4294 11.6667 29.4294 11.6667V11.6667C29.4294 11.6667 29.4294 11.6667 29.4294 11.6667C29.4294 11.6667 29.4294 11.6667 29.4294 11.6667V11.6667C29.4294 11.6667 29.4294 11.6667 29.4294 11.6667C29.4294 11.6667 29.4294 11.6667 29.4294 11.6667V11.6667C29.4294 11.6667 29.4294 11.6667 29.4294 11.6667V11.6667C29.4294 11.6667 29.4294 11.6667 29.4294 11.6667C29.4294 11.6667 29.4294 11.6667 29.4294 11.6667V11.6667C29.4294 11.6667 29.4294 11.6667 29.4294 11.6667C29.4294 11.6667 29.4294 11.6667 29.4294 11.6667V11.6667C29.4294 11.6667 29.4294 11.6667 29.4294 11.6667V11.6667C29.4294 11.6667 29.4294 11.6667 29.4294 11.6667C29.4294 11.6667 29.4294 11.6667 29.4294 11.6667V11.6667C29.4294 11.6667 29.4294 11.6667 29.4294 11.6667C29.4294 11.6667 29.4294 11.6667 29.4294 11.6667V11.6667C29.4294 11.6667 29.4294 11.6667 29.4294 11.6667C29.4294 11.6667 29.4294 11.6667 29.4294 11.6667C29.4294 11.6667 29.4294 11.6667 29.4294 11.6667C29.4294 11.6667 29.4294 11.6667 29.4294 11.6667V11.6667C29.4294 11.6667 29.4294 11.6667 29.4294 11.6667C29.4294 11.6667 29.4294 11.6667 29.4294 11.6667V11.6667C29.4294 11.6667 29.4294 11.6667 29.4294 11.6667C29.4294 11.6667 29.4294 11.6667 29.4294 11.6667C29.4294 11.6667 29.4294 11.6667 29.4294 11.6667C29.4294 11.6667 29.4294 11.6667 29.4294 11.6667V11.6667C29.4294 11.6667 29.4294 11.6667 29.4294 11.6667C29.4294 11.6667 29.4294 11.6667 29.4294 11.6667V11.6667C29.4294 11.6667 29.4294 11.6667 29.4294 11.6667C29.4294 11.6667 29.4294 11.6667 29.4294 11.6667C29.4294 11.6667 29.4294 11.6667 29.4294 11.6667C29.4294 11.6667 29.4294 11.6667 29.4294 11.6667V11.6667C29.4294 11.6667 29.4294 11.6667 29.4294 11.6667C29.4294 11.6667 29.4294 11.6667 29.4294 11.6667V11.6667C29.4294 11.6667 29.4294 11.6667 29.4294 11.6667C29.4294 11.6667 29.4294 11.6667 29.4294 11.6667C29.4294 11.6667 29.4294 11.6667 29.4294 11.6667C29.4294 11.6667 29.4294 11.6667 29.4294 11.6667V11.6667C29.4294 11.6667 29.4294 11.6667 29.4294 11.6667C29.4294 11.6667 29.4294 11.6667 29.4294 11.6667V11.6667C29.4294 11.6667 29.4294 11.6667 29.4294 11.6667C29.4294 11.6667 29.4294 11.6667 29.4294 11.6667H25.4294ZM24.0008 11C24.5393 11 24.9557 11.1718 25.1973 11.3598C25.3151 11.4513 25.3753 11.5334 25.403 11.5842C25.428 11.6302 25.4294 11.6545 25.4294 11.6667H29.4294C29.4294 8.6507 26.5021 7 24.0008 7V11ZM22.5723 11.6667C22.5723 11.6545 22.5737 11.6302 22.5987 11.5842C22.6263 11.5334 22.6866 11.4513 22.8044 11.3598C23.046 11.1718 23.4623 11 24.0008 11V7C21.4996 7 18.5723 8.6507 18.5723 11.6667H22.5723ZM22.5723 11.6667C22.5723 11.6667 22.5723 11.6667 22.5723 11.6667C22.5723 11.6667 22.5723 11.6667 22.5723 11.6667V11.6667C22.5723 11.6667 22.5723 11.6667 22.5723 11.6667C22.5723 11.6667 22.5723 11.6667 22.5723 11.6667V11.6667C22.5723 11.6667 22.5723 11.6667 22.5723 11.6667C22.5723 11.6667 22.5723 11.6667 22.5723 11.6667C22.5723 11.6667 22.5723 11.6667 22.5723 11.6667C22.5723 11.6667 22.5723 11.6667 22.5723 11.6667V11.6667C22.5723 11.6667 22.5723 11.6667 22.5723 11.6667C22.5723 11.6667 22.5723 11.6667 22.5723 11.6667V11.6667C22.5723 11.6667 22.5723 11.6667 22.5723 11.6667C22.5723 11.6667 22.5723 11.6667 22.5723 11.6667C22.5723 11.6667 22.5723 11.6667 22.5723 11.6667C22.5723 11.6667 22.5723 11.6667 22.5723 11.6667V11.6667C22.5723 11.6667 22.5723 11.6667 22.5723 11.6667C22.5723 11.6667 22.5723 11.6667 22.5723 11.6667V11.6667C22.5723 11.6667 22.5723 11.6667 22.5723 11.6667C22.5723 11.6667 22.5723 11.6667 22.5723 11.6667C22.5723 11.6667 22.5723 11.6667 22.5723 11.6667C22.5723 11.6667 22.5723 11.6667 22.5723 11.6667V11.6667C22.5723 11.6667 22.5723 11.6667 22.5723 11.6667C22.5723 11.6667 22.5723 11.6667 22.5723 11.6667V11.6667C22.5723 11.6667 22.5723 11.6667 22.5723 11.6667C22.5723 11.6667 22.5723 11.6667 22.5723 11.6667V11.6667C22.5723 11.6667 22.5723 11.6667 22.5723 11.6667V11.6667C22.5723 11.6667 22.5723 11.6667 22.5723 11.6667C22.5723 11.6667 22.5723 11.6667 22.5723 11.6667V11.6667C22.5723 11.6667 22.5723 11.6667 22.5723 11.6667C22.5723 11.6667 22.5723 11.6667 22.5723 11.6667V11.6667C22.5723 11.6667 22.5723 11.6667 22.5723 11.6667V11.6667C22.5723 11.6667 22.5723 11.6667 22.5723 11.6667C22.5723 11.6667 22.5723 11.6667 22.5723 11.6667V11.6667C22.5723 11.6667 22.5723 11.6667 22.5723 11.6667C22.5723 11.6667 22.5723 11.6667 22.5723 11.6667V11.6667C22.5723 11.6667 22.5723 11.6667 22.5723 11.6667V11.6667C22.5723 11.6667 22.5723 11.6667 22.5723 11.6667C22.5723 11.6667 22.5723 11.6667 22.5723 11.6667V11.6667C22.5723 11.6667 22.5723 11.6667 22.5723 11.6667C22.5723 11.6667 22.5723 11.6667 22.5723 11.6667V11.6667C22.5723 11.6667 22.5723 11.6667 22.5723 11.6667V11.6667C22.5723 11.6667 22.5723 11.6667 22.5723 11.6667C22.5723 11.6667 22.5723 11.6667 22.5723 11.6667V11.6667C22.5723 11.6667 22.5723 11.6667 22.5723 11.6667C22.5723 11.6667 22.5723 11.6667 22.5723 11.6667V11.6667C22.5723 11.6667 22.5723 11.6667 22.5723 11.6667V11.6667C22.5723 11.6667 22.5723 11.6667 22.5723 11.6667C22.5723 11.6667 22.5723 11.6667 22.5723 11.6667V11.6667C22.5723 11.6667 22.5723 11.6667 22.5723 11.6667C22.5723 11.6667 22.5723 11.6667 22.5723 11.6667V11.6667C22.5723 11.6667 22.5723 11.6667 22.5723 11.6667V11.6667C22.5723 11.6667 22.5723 11.6667 22.5723 11.6667C22.5723 11.6667 22.5723 11.6667 22.5723 11.6667V11.6667C22.5723 11.6667 22.5723 11.6667 22.5723 11.6667C22.5723 11.6667 22.5723 11.6667 22.5723 11.6667V11.6667C22.5723 11.6667 22.5723 11.6667 22.5723 11.6667V11.6667C22.5723 11.6667 22.5723 11.6667 22.5723 11.6667C22.5723 11.6667 22.5723 11.6667 22.5723 11.6667V11.6667C22.5723 11.6667 22.5723 11.6667 22.5723 11.6667C22.5723 11.6667 22.5723 11.6667 22.5723 11.6667V11.6667C22.5723 11.6667 22.5723 11.6667 22.5723 11.6667V11.6667C22.5723 11.6667 22.5723 11.6667 22.5723 11.6667C22.5723 11.6667 22.5723 11.6667 22.5723 11.6667V11.6667C22.5723 11.6667 22.5723 11.6667 22.5723 11.6667C22.5723 11.6667 22.5723 11.6667 22.5723 11.6667V11.6667C22.5723 11.6667 22.5723 11.6667 22.5723 11.6667V11.6667C22.5723 11.6667 22.5723 11.6667 22.5723 11.6667C22.5723 11.6667 22.5723 11.6667 22.5723 11.6667V11.6667C22.5723 11.6667 22.5723 11.6667 22.5723 11.6667C22.5723 11.6667 22.5723 11.6667 22.5723 11.6667V11.6667C22.5723 11.6667 22.5723 11.6667 22.5723 11.6667V11.6667C22.5723 11.6667 22.5723 11.6667 22.5723 11.6667C22.5723 11.6667 22.5723 11.6667 22.5723 11.6667V11.6667C22.5723 11.6667 22.5723 11.6667 22.5723 11.6667C22.5723 11.6667 22.5723 11.6667 22.5723 11.6667V11.6667C22.5723 11.6667 22.5723 11.6667 22.5723 11.6667V11.6667C22.5723 11.6667 22.5723 11.6667 22.5723 11.6667C22.5723 11.6667 22.5723 11.6667 22.5723 11.6667V11.6667C22.5723 11.6667 22.5723 11.6667 22.5723 11.6667C22.5723 11.6667 22.5723 11.6667 22.5723 11.6667V11.6667C22.5723 11.6667 22.5723 11.6667 22.5723 11.6667V11.6667C22.5723 11.6667 22.5723 11.6667 22.5723 11.6667C22.5723 11.6667 22.5723 11.6667 22.5723 11.6667V11.6667C22.5723 11.6667 22.5723 11.6667 22.5723 11.6667C22.5723 11.6667 22.5723 11.6667 22.5723 11.6667V11.6667C22.5723 11.6667 22.5723 11.6667 22.5723 11.6667V11.6667C22.5723 11.6667 22.5723 11.6667 22.5723 11.6667C22.5723 11.6667 22.5723 11.6667 22.5723 11.6667V11.6667C22.5723 11.6667 22.5723 11.6667 22.5723 11.6667C22.5723 11.6667 22.5723 11.6667 22.5723 11.6667V11.6667C22.5723 11.6667 22.5723 11.6667 22.5723 11.6667V11.6667C22.5723 11.6667 22.5723 11.6667 22.5723 11.6667C22.5723 11.6667 22.5723 11.6667 22.5723 11.6667V11.6667C22.5723 11.6667 22.5723 11.6667 22.5723 11.6667C22.5723 11.6667 22.5723 11.6667 22.5723 11.6667V11.6667C22.5723 11.6667 22.5723 11.6667 22.5723 11.6667V11.6667C22.5723 11.6667 22.5723 11.6667 22.5723 11.6667C22.5723 11.6667 22.5723 11.6667 22.5723 11.6667V11.6667C22.5723 11.6667 22.5723 11.6667 22.5723 11.6667C22.5723 11.6667 22.5723 11.6667 22.5723 11.6667V11.6667C22.5723 11.6667 22.5723 11.6667 22.5723 11.6667V11.6667C22.5723 11.6667 22.5723 11.6667 22.5723 11.6667C22.5723 11.6667 22.5723 11.6667 22.5723 11.6667V11.6667C22.5723 11.6667 22.5723 11.6667 22.5723 11.6667C22.5723 11.6667 22.5723 11.6667 22.5723 11.6667V11.6667C22.5723 11.6667 22.5723 11.6667 22.5723 11.6667C22.5723 11.6667 22.5723 11.6667 22.5723 11.6667C22.5723 11.6667 22.5723 11.6667 22.5723 11.6667C22.5723 11.6667 22.5723 11.6667 22.5723 11.6667V11.6667C22.5723 11.6667 22.5723 11.6667 22.5723 11.6667C22.5723 11.6667 22.5723 11.6667 22.5723 11.6667V11.6667C22.5723 11.6667 22.5723 11.6667 22.5723 11.6667C22.5723 11.6667 22.5723 11.6667 22.5723 11.6667C22.5723 11.6667 22.5723 11.6667 22.5723 11.6667C22.5723 11.6667 22.5723 11.6667 22.5723 11.6667V11.6667C22.5723 11.6667 22.5723 11.6667 22.5723 11.6667C22.5723 11.6667 22.5723 11.6667 22.5723 11.6667V11.6667C22.5723 11.6667 22.5723 11.6667 22.5723 11.6667C22.5723 11.6667 22.5723 11.6667 22.5723 11.6667C22.5723 11.6667 22.5723 11.6667 22.5723 11.6667C22.5723 11.6667 22.5723 11.6667 22.5723 11.6667V11.6667C22.5723 11.6667 22.5723 11.6667 22.5723 11.6667C22.5723 11.6667 22.5723 11.6667 22.5723 11.6667V11.6667C22.5723 11.6667 22.5723 11.6667 22.5723 11.6667C22.5723 11.6667 22.5723 11.6667 22.5723 11.6667C22.5723 11.6667 22.5723 11.6667 22.5723 11.6667C22.5723 11.6667 22.5723 11.6667 22.5723 11.6667V11.6667C22.5723 11.6667 22.5723 11.6667 22.5723 11.6667C22.5723 11.6667 22.5723 11.6667 22.5723 11.6667V11.6667C22.5723 11.6667 22.5723 11.6667 22.5723 11.6667C22.5723 11.6667 22.5723 11.6667 22.5723 11.6667H18.5723C18.5723 11.6667 18.5723 11.6667 18.5723 11.6667C18.5723 11.6667 18.5723 11.6667 18.5723 11.6667V11.6667C18.5723 11.6667 18.5723 11.6667 18.5723 11.6667C18.5723 11.6667 18.5723 11.6667 18.5723 11.6667V11.6667C18.5723 11.6667 18.5723 11.6667 18.5723 11.6667C18.5723 11.6667 18.5723 11.6667 18.5723 11.6667C18.5723 11.6667 18.5723 11.6667 18.5723 11.6667C18.5723 11.6667 18.5723 11.6667 18.5723 11.6667V11.6667C18.5723 11.6667 18.5723 11.6667 18.5723 11.6667C18.5723 11.6667 18.5723 11.6667 18.5723 11.6667V11.6667C18.5723 11.6667 18.5723 11.6667 18.5723 11.6667C18.5723 11.6667 18.5723 11.6667 18.5723 11.6667C18.5723 11.6667 18.5723 11.6667 18.5723 11.6667C18.5723 11.6667 18.5723 11.6667 18.5723 11.6667V11.6667C18.5723 11.6667 18.5723 11.6667 18.5723 11.6667C18.5723 11.6667 18.5723 11.6667 18.5723 11.6667V11.6667C18.5723 11.6667 18.5723 11.6667 18.5723 11.6667C18.5723 11.6667 18.5723 11.6667 18.5723 11.6667C18.5723 11.6667 18.5723 11.6667 18.5723 11.6667C18.5723 11.6667 18.5723 11.6667 18.5723 11.6667V11.6667C18.5723 11.6667 18.5723 11.6667 18.5723 11.6667C18.5723 11.6667 18.5723 11.6667 18.5723 11.6667V11.6667C18.5723 11.6667 18.5723 11.6667 18.5723 11.6667C18.5723 11.6667 18.5723 11.6667 18.5723 11.6667C18.5723 11.6667 18.5723 11.6667 18.5723 11.6667C18.5723 11.6667 18.5723 11.6667 18.5723 11.6667V11.6667C18.5723 11.6667 18.5723 11.6667 18.5723 11.6667C18.5723 11.6667 18.5723 11.6667 18.5723 11.6667V11.6667C18.5723 11.6667 18.5723 11.6667 18.5723 11.6667C18.5723 11.6667 18.5723 11.6667 18.5723 11.6667V11.6667C18.5723 11.6667 18.5723 11.6667 18.5723 11.6667V11.6667C18.5723 11.6667 18.5723 11.6667 18.5723 11.6667C18.5723 11.6667 18.5723 11.6667 18.5723 11.6667V11.6667C18.5723 11.6667 18.5723 11.6667 18.5723 11.6667C18.5723 11.6667 18.5723 11.6667 18.5723 11.6667V11.6667C18.5723 11.6667 18.5723 11.6667 18.5723 11.6667V11.6667C18.5723 11.6667 18.5723 11.6667 18.5723 11.6667C18.5723 11.6667 18.5723 11.6667 18.5723 11.6667V11.6667C18.5723 11.6667 18.5723 11.6667 18.5723 11.6667C18.5723 11.6667 18.5723 11.6667 18.5723 11.6667V11.6667C18.5723 11.6667 18.5723 11.6667 18.5723 11.6667V11.6667C18.5723 11.6667 18.5723 11.6667 18.5723 11.6667C18.5723 11.6667 18.5723 11.6667 18.5723 11.6667V11.6667C18.5723 11.6667 18.5723 11.6667 18.5723 11.6667C18.5723 11.6667 18.5723 11.6667 18.5723 11.6667V11.6667C18.5723 11.6667 18.5723 11.6667 18.5723 11.6667V11.6667C18.5723 11.6667 18.5723 11.6667 18.5723 11.6667C18.5723 11.6667 18.5723 11.6667 18.5723 11.6667V11.6667C18.5723 11.6667 18.5723 11.6667 18.5723 11.6667C18.5723 11.6667 18.5723 11.6667 18.5723 11.6667V11.6667C18.5723 11.6667 18.5723 11.6667 18.5723 11.6667V11.6667C18.5723 11.6667 18.5723 11.6667 18.5723 11.6667C18.5723 11.6667 18.5723 11.6667 18.5723 11.6667V11.6667C18.5723 11.6667 18.5723 11.6667 18.5723 11.6667C18.5723 11.6667 18.5723 11.6667 18.5723 11.6667V11.6667C18.5723 11.6667 18.5723 11.6667 18.5723 11.6667V11.6667C18.5723 11.6667 18.5723 11.6667 18.5723 11.6667C18.5723 11.6667 18.5723 11.6667 18.5723 11.6667V11.6667C18.5723 11.6667 18.5723 11.6667 18.5723 11.6667C18.5723 11.6667 18.5723 11.6667 18.5723 11.6667V11.6667C18.5723 11.6667 18.5723 11.6667 18.5723 11.6667V11.6667C18.5723 11.6667 18.5723 11.6667 18.5723 11.6667C18.5723 11.6667 18.5723 11.6667 18.5723 11.6667V11.6667C18.5723 11.6667 18.5723 11.6667 18.5723 11.6667C18.5723 11.6667 18.5723 11.6667 18.5723 11.6667V11.6667C18.5723 11.6667 18.5723 11.6667 18.5723 11.6667V11.6667C18.5723 11.6667 18.5723 11.6667 18.5723 11.6667C18.5723 11.6667 18.5723 11.6667 18.5723 11.6667V11.6667C18.5723 11.6667 18.5723 11.6667 18.5723 11.6667C18.5723 11.6667 18.5723 11.6667 18.5723 11.6667V11.6667C18.5723 11.6667 18.5723 11.6667 18.5723 11.6667V11.6667C18.5723 11.6667 18.5723 11.6667 18.5723 11.6667C18.5723 11.6667 18.5723 11.6667 18.5723 11.6667V11.6667C18.5723 11.6667 18.5723 11.6667 18.5723 11.6667C18.5723 11.6667 18.5723 11.6667 18.5723 11.6667V11.6667C18.5723 11.6667 18.5723 11.6667 18.5723 11.6667V11.6667C18.5723 11.6667 18.5723 11.6667 18.5723 11.6667C18.5723 11.6667 18.5723 11.6667 18.5723 11.6667V11.6667C18.5723 11.6667 18.5723 11.6667 18.5723 11.6667C18.5723 11.6667 18.5723 11.6667 18.5723 11.6667V11.6667C18.5723 11.6667 18.5723 11.6667 18.5723 11.6667V11.6667C18.5723 11.6667 18.5723 11.6667 18.5723 11.6667C18.5723 11.6667 18.5723 11.6667 18.5723 11.6667V11.6667C18.5723 11.6667 18.5723 11.6667 18.5723 11.6667C18.5723 11.6667 18.5723 11.6667 18.5723 11.6667V11.6667C18.5723 11.6667 18.5723 11.6667 18.5723 11.6667V11.6667C18.5723 11.6667 18.5723 11.6667 18.5723 11.6667C18.5723 11.6667 18.5723 11.6667 18.5723 11.6667V11.6667C18.5723 11.6667 18.5723 11.6667 18.5723 11.6667C18.5723 11.6667 18.5723 11.6667 18.5723 11.6667V11.6667C18.5723 11.6667 18.5723 11.6667 18.5723 11.6667V11.6667C18.5723 11.6667 18.5723 11.6667 18.5723 11.6667C18.5723 11.6667 18.5723 11.6667 18.5723 11.6667V11.6667C18.5723 11.6667 18.5723 11.6667 18.5723 11.6667C18.5723 11.6667 18.5723 11.6667 18.5723 11.6667V11.6667C18.5723 11.6667 18.5723 11.6667 18.5723 11.6667V11.6667C18.5723 11.6667 18.5723 11.6667 18.5723 11.6667C18.5723 11.6667 18.5723 11.6667 18.5723 11.6667V11.6667C18.5723 11.6667 18.5723 11.6667 18.5723 11.6667C18.5723 11.6667 18.5723 11.6667 18.5723 11.6667V11.6667C18.5723 11.6667 18.5723 11.6667 18.5723 11.6667V11.6667C18.5723 11.6667 18.5723 11.6667 18.5723 11.6667C18.5723 11.6667 18.5723 11.6667 18.5723 11.6667V11.6667C18.5723 11.6667 18.5723 11.6667 18.5723 11.6667C18.5723 11.6667 18.5723 11.6667 18.5723 11.6667V11.6667C18.5723 11.6667 18.5723 11.6667 18.5723 11.6667V11.6667C18.5723 11.6667 18.5723 11.6667 18.5723 11.6667C18.5723 11.6667 18.5723 11.6667 18.5723 11.6667V11.6667C18.5723 11.6667 18.5723 11.6667 18.5723 11.6667C18.5723 11.6667 18.5723 11.6667 18.5723 11.6667V11.6667C18.5723 11.6667 18.5723 11.6667 18.5723 11.6667C18.5723 11.6667 18.5723 11.6667 18.5723 11.6667C18.5723 11.6667 18.5723 11.6667 18.5723 11.6667C18.5723 11.6667 18.5723 11.6667 18.5723 11.6667V11.6667C18.5723 11.6667 18.5723 11.6667 18.5723 11.6667C18.5723 11.6667 18.5723 11.6667 18.5723 11.6667V11.6667C18.5723 11.6667 18.5723 11.6667 18.5723 11.6667C18.5723 11.6667 18.5723 11.6667 18.5723 11.6667C18.5723 11.6667 18.5723 11.6667 18.5723 11.6667C18.5723 11.6667 18.5723 11.6667 18.5723 11.6667V11.6667C18.5723 11.6667 18.5723 11.6667 18.5723 11.6667C18.5723 11.6667 18.5723 11.6667 18.5723 11.6667V11.6667C18.5723 11.6667 18.5723 11.6667 18.5723 11.6667C18.5723 11.6667 18.5723 11.6667 18.5723 11.6667C18.5723 11.6667 18.5723 11.6667 18.5723 11.6667C18.5723 11.6667 18.5723 11.6667 18.5723 11.6667V11.6667C18.5723 11.6667 18.5723 11.6667 18.5723 11.6667C18.5723 11.6667 18.5723 11.6667 18.5723 11.6667V11.6667C18.5723 11.6667 18.5723 11.6667 18.5723 11.6667C18.5723 11.6667 18.5723 11.6667 18.5723 11.6667H22.5723ZM19 13.6667H20.5723V9.66671H19V13.6667ZM20 12.6667C20 13.219 19.5523 13.6667 19 13.6667V9.66671C17.3431 9.66671 16 11.0099 16 12.6667H20ZM20 17V12.6667H16V17H20ZM30 15H18V19H30V15ZM28 12.6667V17H32V12.6667H28ZM29 13.6667C28.4477 13.6667 28 13.219 28 12.6667H32C32 11.0099 30.6569 9.66671 29 9.66671V13.6667ZM27.4294 13.6667H29V9.66671H27.4294V13.6667Z" fill="#111820" mask="url(#path-3-inside-1_9_3015)"/>
<path d="M19.5 23.7508L22.508 26.7586L27.9204 21.25" stroke="#111820" stroke-width="2" stroke-linecap="round" stroke-linejoin="round"/>
</svg>
