<svg width="52" height="21" viewBox="0 0 52 21" fill="none" xmlns="http://www.w3.org/2000/svg">
<path d="M45.896 0H6.10397C2.73284 0 0 2.72846 0 6.09419V14.9058C0 18.2715 2.73284 21 6.10397 21H45.896C49.2672 21 52 18.2715 52 14.9058V6.09419C52 2.72846 49.2672 0 45.896 0Z" fill="#FFB3C7"/>
<path d="M41.64 9.20135C41.156 8.87205 40.5911 8.68076 40.0063 8.64809C39.4215 8.61542 38.8388 8.74259 38.321 9.01592C37.8031 9.28925 37.3697 9.69839 37.0675 10.1993C36.7652 10.7002 36.6055 11.274 36.6055 11.8588C36.6055 12.4436 36.7652 13.0173 37.0675 13.5183C37.3697 14.0192 37.8031 14.4283 38.321 14.7017C38.8388 14.975 39.4215 15.1022 40.0063 15.0695C40.5911 15.0368 41.156 14.8455 41.64 14.5162V14.9056H43.4676V8.81156H41.64V9.20135ZM39.9779 13.4268C39.6708 13.4104 39.3753 13.3046 39.1279 13.1224C38.8804 12.9402 38.6919 12.6895 38.5857 12.4014C38.4794 12.1134 38.4601 11.8005 38.53 11.5016C38.6 11.2026 38.7562 10.9307 38.9793 10.7195C39.2024 10.5083 39.4827 10.367 39.7854 10.3131C40.0881 10.2592 40.4 10.2951 40.6825 10.4164C40.965 10.5376 41.2057 10.7389 41.3748 10.9952C41.5439 11.2516 41.634 11.5519 41.634 11.8589C41.6224 12.2859 41.4414 12.6909 41.1309 12.9849C40.8203 13.2789 40.4057 13.4378 39.9779 13.4268Z" fill="#111820"/>
<path d="M16.5781 6.0957H14.6655V14.9057H16.5781V6.0957Z" fill="#111820"/>
<path d="M33.3601 8.6479C33.0008 8.6267 32.6417 8.69304 32.3138 8.84122C31.9858 8.98939 31.6989 9.21495 31.4777 9.49846V8.81217H29.6577V14.906H31.4996V11.7035C31.4855 11.5195 31.5111 11.3346 31.5749 11.1615C31.6387 10.9883 31.7391 10.8309 31.8693 10.6999C31.9994 10.5689 32.1563 10.4674 32.3293 10.4024C32.5022 10.3374 32.6872 10.3103 32.8715 10.3229C33.6748 10.3229 34.1364 10.802 34.1364 11.6908V14.906H35.962V11.0306C35.9619 9.61236 34.8325 8.6479 33.3601 8.6479Z" fill="#111820"/>
<path d="M22.3602 9.20135C21.8762 8.87205 21.3114 8.68076 20.7265 8.64809C20.1417 8.61542 19.559 8.74259 19.0412 9.01592C18.5233 9.28925 18.09 9.69839 17.7877 10.1993C17.4854 10.7002 17.3257 11.274 17.3257 11.8588C17.3257 12.4436 17.4854 13.0173 17.7877 13.5183C18.09 14.0192 18.5233 14.4283 19.0412 14.7017C19.559 14.975 20.1417 15.1022 20.7265 15.0695C21.3114 15.0368 21.8762 14.8455 22.3602 14.5162V14.9056H24.1878V8.81156H22.3602V9.20135ZM20.6981 13.4268C20.391 13.4105 20.0955 13.3047 19.848 13.1225C19.6005 12.9403 19.412 12.6896 19.3057 12.4016C19.1994 12.1135 19.18 11.8006 19.25 11.5017C19.3199 11.2027 19.4761 10.9308 19.6992 10.7196C19.9223 10.5083 20.2026 10.367 20.5053 10.3131C20.808 10.2592 21.1199 10.2951 21.4024 10.4163C21.6849 10.5376 21.9256 10.7388 22.0947 10.9952C22.2639 11.2516 22.354 11.5519 22.354 11.8589C22.3423 12.2859 22.1614 12.6909 21.8509 12.9848C21.5404 13.2788 21.1258 13.4377 20.698 13.4268H20.6981Z" fill="#111820"/>
<path d="M27.0147 9.60525V8.81149H25.1436V14.9056H27.0187V12.0606C27.0187 11.1006 28.0609 10.5846 28.784 10.5846C28.7913 10.5846 28.7984 10.5853 28.8057 10.5854V8.81185C28.4669 8.80277 28.1303 8.86928 27.8204 9.00654C27.5106 9.14379 27.2353 9.34833 27.0147 9.60525Z" fill="#111820"/>
<path d="M45.4078 12.7441C45.1809 12.7442 44.9591 12.8113 44.7705 12.9372C44.5819 13.063 44.4349 13.2419 44.348 13.4511C44.2612 13.6604 44.2385 13.8907 44.2828 14.1128C44.3271 14.335 44.4363 14.539 44.5967 14.6992C44.7572 14.8594 44.9615 14.9684 45.184 15.0126C45.4066 15.0568 45.6372 15.0341 45.8468 14.9474C46.0564 14.8607 46.2355 14.714 46.3616 14.5256C46.4876 14.3373 46.5549 14.1159 46.5549 13.8894C46.5549 13.739 46.5252 13.59 46.4676 13.4511C46.4099 13.3121 46.3254 13.1859 46.2189 13.0795C46.1124 12.9732 45.9859 12.8888 45.8468 12.8313C45.7076 12.7737 45.5584 12.7441 45.4078 12.7441Z" fill="#111820"/>
<path d="M13.347 6.09424H11.3649C11.368 6.88784 11.1841 7.67103 10.8281 8.38059C10.4721 9.09015 9.95391 9.70618 9.31547 10.1789L8.53027 10.7661L11.5729 14.9087H14.0745L11.2749 11.0969C11.9352 10.4418 12.4584 9.66213 12.8141 8.8033C13.1698 7.94447 13.3509 7.0236 13.347 6.09424Z" fill="#111820"/>
<path d="M8.28835 6.09424H6.30273V14.9083H8.28835V6.09424Z" fill="#111820"/>
</svg>
