<svg width="50" height="12" viewBox="0 0 50 12" fill="none" xmlns="http://www.w3.org/2000/svg">
<g clip-path="url(#clip0)">
<path d="M8.75 0H6.30209C6.3062 1.06077 6.07939 2.1077 5.64002 3.0561C5.20064 4.0045 4.56104 4.82775 3.77294 5.45926L2.8042 6.24333L6.55418 11.7792H9.64374L6.1896 6.68494C7.00505 5.81005 7.65139 4.76843 8.09097 3.62074C8.53054 2.47305 8.75457 1.24224 8.75 0Z" fill="#111820"/>
<path d="M0 11.7792H2.50623V0H0V11.7792Z" fill="#111820"/>
<path d="M10.3728 11.7749H12.7332V0.00244141H10.3728V11.7749Z" fill="#111820"/>
<path d="M33.435 3.41417C32.5351 3.41417 31.683 3.71609 31.1142 4.54072V3.63272H28.8684V11.7754H31.1413V7.49453C31.1413 6.25533 31.908 5.64925 32.833 5.64925C33.8246 5.64925 34.3934 6.28913 34.3934 7.47651V11.7754H36.6454V6.5933C36.6454 4.69844 35.2517 3.40967 33.435 3.40967V3.41417Z" fill="#111820"/>
<path d="M17.8144 9.79829C17.2868 9.81282 16.7755 9.60032 16.3927 9.20744C16.0099 8.81457 15.7869 8.27344 15.7727 7.70291C15.8016 7.13813 16.0294 6.60677 16.4093 6.21801C16.7892 5.82925 17.2924 5.61261 17.8154 5.61261C18.3384 5.61261 18.8416 5.82925 19.2215 6.21801C19.6014 6.60677 19.8292 7.13813 19.8581 7.70291C19.8439 8.27384 19.6206 8.81532 19.2374 9.20826C18.8541 9.6012 18.3423 9.81343 17.8144 9.79829ZM19.8643 3.63156V4.15202C19.3503 3.77325 18.7611 3.53032 18.1444 3.44278C17.5276 3.35524 16.9005 3.42555 16.3135 3.64805C15.7264 3.87054 15.1959 4.239 14.7646 4.72376C14.3333 5.20851 14.0133 5.79603 13.8303 6.43899C13.6473 7.08196 13.6065 7.7624 13.7111 8.42555C13.8158 9.08869 14.0629 9.71601 14.4326 10.257C14.8024 10.798 15.2845 11.2375 15.84 11.5401C16.3955 11.8428 17.009 12.0002 17.631 11.9996C18.427 12.0046 19.2057 11.7485 19.8643 11.2651V11.7855H22.1206V3.63156H19.8643Z" fill="#111820"/>
<path d="M25.6081 4.69304V3.63184H23.2998V11.7745H25.6123V7.97355C25.6123 6.68929 26.8977 5.99984 27.7914 5.99984H27.8164V3.63184C26.9019 3.63184 26.0602 4.05542 25.6081 4.69304Z" fill="#111820"/>
<path d="M41.5999 9.7983C41.0723 9.81284 40.561 9.60033 40.1782 9.20745C39.7954 8.81458 39.5724 8.27345 39.5582 7.70292C39.5871 7.13814 39.8149 6.60678 40.1948 6.21802C40.5747 5.82925 41.0779 5.61262 41.6009 5.61262C42.1239 5.61262 42.6271 5.82925 43.007 6.21802C43.3869 6.60678 43.6147 7.13814 43.6436 7.70292C43.6294 8.27385 43.4062 8.81533 43.0229 9.20827C42.6396 9.60121 42.1278 9.81344 41.5999 9.7983ZM43.6519 3.63156V4.15203C43.0549 3.71209 42.3581 3.45656 41.6368 3.41295C40.9154 3.36934 40.1967 3.53928 39.558 3.90451C38.9193 4.26973 38.3848 4.8164 38.012 5.48569C37.6392 6.15498 37.4421 6.92155 37.4421 7.70292C37.4421 8.48428 37.6392 9.25085 38.012 9.92014C38.3848 10.5894 38.9193 11.1361 39.558 11.5013C40.1967 11.8665 40.9154 12.0365 41.6368 11.9929C42.3581 11.9493 43.0549 11.6937 43.6519 11.2538V11.7743H45.9061V3.63156H43.6519Z" fill="#111820"/>
<path d="M48.2998 8.88623C48.0195 8.88579 47.7454 8.97526 47.5122 9.14334C47.279 9.31142 47.0971 9.55055 46.9895 9.83047C46.882 10.1104 46.8536 10.4185 46.9081 10.7159C46.9625 11.0132 47.0973 11.2864 47.2953 11.5009C47.4933 11.7154 47.7457 11.8615 48.0206 11.9208C48.2954 11.9801 48.5804 11.9499 48.8394 11.834C49.0983 11.7181 49.3197 11.5218 49.4755 11.2698C49.6312 11.0178 49.7143 10.7215 49.7144 10.4183C49.7146 10.2173 49.6782 10.0181 49.6073 9.8322C49.5363 9.64633 49.4322 9.47741 49.3008 9.33511C49.1694 9.19281 49.0134 9.07992 48.8416 9.0029C48.6699 8.92588 48.4857 8.88623 48.2998 8.88623Z" fill="#111820"/>
</g>
<defs>
<clipPath id="clip0">
<rect width="49.7143" height="12" fill="white"/>
</clipPath>
</defs>
</svg>
