<svg width="32" height="32" viewBox="0 0 32 32" fill="none" xmlns="http://www.w3.org/2000/svg">
<circle cx="16" cy="16" r="16" fill="#111820"/>
<path d="M15.9673 21.182C18.1093 21.182 19.8733 19.95 19.8733 17.99C19.8733 17.038 19.3693 15.96 18.2213 15.484C18.9493 15.05 19.5513 14.21 19.5513 13.202C19.5513 11.41 18.0813 10.402 16.0093 10.402C13.7413 10.402 12.3553 11.732 12.2153 13.832H14.3293C14.3713 12.684 14.9593 12.152 16.0233 12.152C16.7933 12.152 17.4513 12.572 17.4513 13.398C17.4513 14.098 16.8353 14.77 15.9113 14.77H15.0853V16.478H15.8833C17.1013 16.478 17.7593 17.192 17.7593 18.004C17.7593 18.942 16.9473 19.432 16.0653 19.432C15.0293 19.432 14.1333 18.858 14.1193 17.654H12.0053C12.1733 20.006 13.8113 21.182 15.9673 21.182Z" fill="white"/>
</svg>
