<svg width="32" height="32" viewBox="0 0 32 32" fill="none" xmlns="http://www.w3.org/2000/svg">
<circle cx="16" cy="16" r="16" fill="#111820"/>
<path d="M12.4607 21H19.5587V19.236H14.9527C15.1627 18.578 15.9047 18.032 16.7167 17.458C17.9627 16.59 19.4607 15.372 19.4607 13.37C19.4607 11.214 17.7667 10.402 16.0307 10.402C13.8327 10.402 12.3487 11.746 12.3487 13.874H14.4207C14.4487 12.642 15.0507 12.096 15.9887 12.096C16.6887 12.096 17.3467 12.502 17.3467 13.412C17.3467 14.35 16.7167 15.19 15.8907 15.82C14.3927 16.982 12.4607 18.186 12.4607 20.272V21Z" fill="white"/>
</svg>
