<svg width="40" height="40" viewBox="0 0 40 40" fill="none" xmlns="http://www.w3.org/2000/svg">
<circle cx="20" cy="20" r="20" fill="#F7F7F7"/>
<path fill-rule="evenodd" clip-rule="evenodd" d="M31.7864 18.3817L25.8142 10.4189C25.6884 10.2427 25.5094 10.1139 25.3075 10.0485C25.1709 10.0043 25.0239 9.98913 24.8759 10.0079C24.8097 10.0161 24.744 10.031 24.6798 10.0527L8.72418 15.0389C8.66284 15.0565 8.60263 15.0801 8.54445 15.11C8.43846 15.1641 8.34522 15.2356 8.26722 15.3198C8.1658 15.4289 8.0924 15.5568 8.04853 15.6931C8.00434 15.8296 7.98914 15.9766 8.00785 16.1246C8.02197 16.2382 8.05577 16.3504 8.11 16.4561C8.13974 16.5143 8.17474 16.5687 8.21422 16.6189L14.1863 24.5817C14.2259 24.6371 14.2707 24.6878 14.3198 24.7333C14.4288 24.8347 14.5567 24.9081 14.693 24.952C14.8293 24.9961 14.976 25.0113 15.1237 24.9928C15.1902 24.9846 15.2562 24.9696 15.3207 24.9478L31.2764 19.9617C31.3377 19.9441 31.3979 19.9204 31.4561 19.8905C31.697 19.7676 31.872 19.5546 31.952 19.3074C31.9961 19.1712 32.0113 19.0245 31.9928 18.8768C31.9787 18.7627 31.9448 18.65 31.8903 18.544C31.8606 18.4859 31.8257 18.4317 31.7864 18.3817ZM24.6242 12.1655L29.351 18.468L25.1591 19.7779C25.4012 18.2838 24.8957 16.4381 23.6671 14.8481C23.0985 14.1121 22.4378 13.5123 21.7426 13.066L24.6242 12.1655ZM19.1352 21.6604C18.4292 21.2122 17.7578 20.6058 17.1812 19.8595C15.9607 18.2799 15.4538 16.448 15.6846 14.9591L10.6495 16.5326L15.3764 22.835L19.1352 21.6604ZM18.1166 14.3672C18.3638 14.1762 18.848 14.0236 19.6381 14.2643C20.4228 14.5033 21.3334 15.0988 22.0845 16.0709C22.8356 17.043 23.182 18.0744 23.2153 18.8941C23.2488 19.7193 22.979 20.1493 22.7317 20.3403C22.4845 20.5314 22.0003 20.684 21.2102 20.4433C20.4255 20.2042 19.5149 19.6088 18.7638 18.6367C18.0127 17.6645 17.6663 16.6331 17.633 15.8135C17.5995 14.9883 17.8693 14.5583 18.1166 14.3672Z" fill="#111820"/>
<path d="M9.79289 21.3906C9.45616 20.9528 8.82831 20.8709 8.39056 21.2076C7.9528 21.5444 7.87091 22.1722 8.20764 22.61L13.1935 29.0915C13.3212 29.2659 13.5014 29.3924 13.7038 29.4554C13.9061 29.518 14.1262 29.5159 14.3302 29.4445L31.3081 23.9517C31.8336 23.7817 32.1217 23.2179 31.9517 22.6924C31.7817 22.167 31.2179 21.8788 30.6924 22.0488L14.3631 27.3318L9.79289 21.3906Z" fill="#111820"/>
</svg>
